<svg width="64" height="64" viewBox="0 0 64 64" fill="none" xmlns="http://www.w3.org/2000/svg">
<g clip-path="url(#clip0_3473_5928)">
<path d="M64 32.5C64 33.8809 62.8809 35 61.5 35H57.75V38.75C57.75 40.1309 56.6309 41.25 55.25 41.25C53.8691 41.25 52.75 40.1309 52.75 38.75V35H49C47.6191 35 46.5 33.8809 46.5 32.5C46.5 31.1191 47.6191 30 49 30H52.75V26.25C52.75 24.8691 53.8691 23.75 55.25 23.75C56.6309 23.75 57.75 24.8691 57.75 26.25V30H61.5C62.8809 30 64 31.1191 64 32.5ZM57.8188 46.4985C56.6768 45.7222 55.1221 46.0186 54.3457 47.1602C49.3052 54.5737 40.9517 59 32 59C17.1123 59 5 46.8877 5 32C5 17.1123 17.1123 5 32 5C41.1426 5 49.5942 9.57324 54.6084 17.2339C55.3647 18.3892 56.9141 18.7124 58.0693 17.9561C59.2246 17.2002 59.5483 15.6504 58.792 14.4951C52.8506 5.41895 42.835 0 32 0C23.4526 0 15.4165 3.32861 9.37256 9.37256C3.32861 15.4165 0 23.4526 0 32C0 40.5474 3.32861 48.5835 9.37256 54.6274C15.4165 60.6714 23.4526 64 32 64C42.6089 64 52.5083 58.7559 58.4805 49.9717C59.2568 48.8296 58.9604 47.2749 57.8188 46.4985ZM18.625 43.875C20.0059 43.875 21.125 42.7559 21.125 41.375V22.75C21.125 21.8091 20.5967 20.9478 19.7578 20.5215C18.9189 20.0947 17.9116 20.1758 17.1514 20.7305L12.5264 24.1055C11.4111 24.9194 11.1665 26.4834 11.9805 27.5986C12.7944 28.7139 14.3584 28.958 15.4736 28.1445L16.125 27.6689V41.375C16.125 42.7559 17.2441 43.875 18.625 43.875ZM26.125 36.375C26.125 34.3745 26.9141 32.5557 28.1953 31.2095C27.2905 30.0454 26.75 28.585 26.75 27C26.75 23.209 29.834 20.125 33.625 20.125C37.416 20.125 40.5 23.209 40.5 27C40.5 28.585 39.9595 30.0454 39.0547 31.2095C40.3359 32.5557 41.125 34.3745 41.125 36.375C41.125 40.5107 37.7607 43.875 33.625 43.875C29.4893 43.875 26.125 40.5107 26.125 36.375ZM36.125 36.375C36.125 34.9966 35.0034 33.875 33.625 33.875C32.2466 33.875 31.125 34.9966 31.125 36.375C31.125 37.7534 32.2466 38.875 33.625 38.875C35.0034 38.875 36.125 37.7534 36.125 36.375ZM31.75 27C31.75 28.0337 32.5913 28.875 33.625 28.875C34.6587 28.875 35.5 28.0337 35.5 27C35.5 25.9663 34.6587 25.125 33.625 25.125C32.5913 25.125 31.75 25.9663 31.75 27Z" fill="black"/>
</g>
<defs>
<clipPath id="clip0_3473_5928">
<rect width="64" height="64" fill="white"/>
</clipPath>
</defs>
</svg>
