<svg width="64" height="64" viewBox="0 0 64 64" fill="none" xmlns="http://www.w3.org/2000/svg">
<g clip-path="url(#clip0_3473_5922)">
<path d="M55.3163 45.893C55.7484 45.288 56.0038 44.5484 56.0038 43.7499C56.0038 41.7116 54.3455 40.0534 52.3073 40.0534H47.1123C46.7984 39.6904 46.416 39.3871 45.9851 39.1634V35.9159C53.9144 33.9409 59.8075 26.76 59.8075 18.2275C59.8075 8.17688 51.6313 0 41.5813 0C31.5306 0 23.3538 8.17688 23.3538 18.2275C23.3538 22.4751 24.8459 26.61 27.5551 29.8705C27.886 30.2688 28.4773 30.3231 28.8754 29.9924C29.2738 29.6615 29.3283 29.0704 28.9974 28.6721C26.5673 25.7476 25.2289 22.0384 25.2289 18.2275C25.2289 9.21075 32.5646 1.875 41.5814 1.875C50.5975 1.875 57.9326 9.21075 57.9326 18.2275C57.9326 27.2444 50.5975 34.58 41.5814 34.58C38.123 34.58 34.8184 33.5145 32.025 31.4985C31.6055 31.1956 31.0194 31.2901 30.7161 31.71C30.4131 32.1299 30.5079 32.7159 30.9278 33.0189C32.8286 34.3906 34.9421 35.3654 37.1763 35.9188V38.7352H35.359C33.4635 38.7352 31.6496 39.4404 30.2515 40.7206C28.9424 41.9195 27.2439 42.5798 25.4688 42.5798H25.1689V42.27C25.1689 40.8833 24.0413 39.755 22.6551 39.755H18.9901C17.9803 39.755 17.1099 40.3545 16.7101 41.2152L12.5634 40.5901C10.1108 40.2204 7.60976 40.0329 5.12988 40.0329C4.61201 40.0329 4.19238 40.4526 4.19238 40.9704C4.19238 41.4881 4.61201 41.9079 5.12988 41.9079C7.51651 41.9079 9.92351 42.0883 12.2838 42.4441L16.475 43.076V45.2864C16.475 45.8041 16.8946 46.2239 17.4125 46.2239C17.9304 46.2239 18.35 45.8041 18.35 45.2864V42.2701C18.35 41.9173 18.6371 41.6301 18.99 41.6301H22.655C23.0073 41.6301 23.2938 41.9173 23.2938 42.2701V60.7439C23.2938 61.096 23.0073 61.3826 22.655 61.3826H18.99C18.6371 61.3826 18.35 61.0961 18.35 60.7439V49.6614C18.35 49.1436 17.9304 48.7239 17.4125 48.7239C16.8946 48.7239 16.475 49.1436 16.475 49.6614V59.937L12.2838 60.5689C9.92376 60.9247 7.51676 61.1051 5.12988 61.1051C4.61201 61.1051 4.19238 61.5249 4.19238 62.0426C4.19238 62.5604 4.61201 62.9801 5.12988 62.9801C7.61013 62.9801 10.1111 62.7926 12.5634 62.4229L16.7099 61.7977C17.1096 62.6582 17.9801 63.2578 18.9901 63.2578H22.6551C24.0413 63.2578 25.1689 62.1301 25.1689 60.744V60.4674C25.9484 60.5269 26.7204 60.6634 27.4731 60.8766C27.8169 60.973 28.1651 61.089 28.5079 61.2212C28.6189 61.264 28.7329 61.2842 28.8449 61.2842C29.2214 61.2842 29.5764 61.056 29.7199 60.6838C29.9061 60.2006 29.6654 59.658 29.1824 59.4717C28.7846 59.3184 28.38 59.1838 27.9819 59.072C27.0648 58.8121 26.1214 58.6515 25.1689 58.5889V44.4548H25.4688C27.7139 44.4548 29.862 43.6196 31.518 42.1034C32.5694 41.1405 33.9335 40.6102 35.3591 40.6102H44.2311C45.2811 40.6102 46.1405 41.4441 46.1468 42.4632L46.1469 52.2156C46.1469 52.4324 45.9705 52.6087 45.7536 52.6087C44.205 52.6096 42.9784 51.4709 42.7719 49.8976L42.3146 46.4851C42.2538 46.0305 41.8728 45.6868 41.4143 45.6726L38.18 45.573C37.7313 45.5359 37.3078 45.8265 37.1944 46.2779C36.3584 49.605 35.2908 51.0894 31.174 51.0894C30.6561 51.0894 30.2365 51.5091 30.2365 52.0269C30.2365 52.5446 30.6561 52.9644 31.174 52.9644C34.1844 52.9644 35.9931 52.2113 37.1765 50.8252V62.1236C35.7855 62.1156 34.4201 61.8647 33.1175 61.3751C32.6329 61.193 32.0924 61.4381 31.9101 61.9229C31.728 62.4075 31.9733 62.9481 32.4579 63.1302C33.9936 63.7075 35.6044 64.0001 37.2453 64.0001H38.114C38.6319 64.0001 39.0515 63.5804 39.0515 63.0626V47.4756L40.5619 47.5221L40.9119 50.1336C41.05 51.4219 41.6776 52.5441 42.598 53.3265C42.4008 53.7847 42.296 54.2791 42.296 54.7858C42.296 55.6111 42.568 56.374 43.027 56.9899C41.8071 57.5944 40.9661 58.8524 40.9661 60.3036C40.9661 62.3419 42.6244 64.0001 44.6625 64.0001H50.2276C52.2659 64.0001 53.924 62.3419 53.924 60.3036C53.924 59.5787 53.7134 58.9024 53.3514 58.3311C54.8828 57.8794 56.004 56.4615 56.004 54.7858C56.004 53.9873 55.7486 53.2476 55.3165 52.6426C56.6063 52.065 57.5076 50.7701 57.5076 49.2679C57.5076 47.7656 56.606 46.4706 55.3163 45.893ZM52.3073 41.9284C53.3116 41.9284 54.1288 42.7455 54.1288 43.7499C54.1288 44.7542 53.3116 45.5713 52.3073 45.5713H48.0218V42.4935C48.0224 42.3026 48.0076 42.1126 47.9796 41.9284H52.3073ZM39.0513 36.2784C39.8836 36.3935 40.7279 36.4551 41.5813 36.4551C42.4393 36.4551 43.2833 36.3941 44.11 36.2789V38.7354H39.0511V36.2784H39.0513ZM50.2274 62.125H44.6623C43.658 62.125 42.8409 61.3079 42.8409 60.3035C42.8409 59.2991 43.658 58.4821 44.6623 58.4821H50.2274C51.2316 58.4821 52.0488 59.2993 52.0488 60.3035C52.0488 61.3078 51.2316 62.125 50.2274 62.125ZM52.3073 56.6071H45.9921C44.9879 56.6071 44.1708 55.79 44.1708 54.7856C44.1708 54.6015 44.1985 54.4206 44.2518 54.2479C44.7256 54.4005 45.2301 54.4836 45.7535 54.4836C46.7416 54.4836 47.5819 53.8475 47.8921 52.9641H52.3073C53.3116 52.9641 54.1288 53.7812 54.1288 54.7855C54.1288 55.7897 53.3116 56.6071 52.3073 56.6071ZM53.8109 51.0892H48.0218V47.4463C49.1154 47.4463 52.785 47.4461 53.8109 47.4463C54.8151 47.4463 55.6323 48.2634 55.6323 49.2677C55.6323 50.2721 54.8151 51.0892 53.8109 51.0892Z" fill="black"/>
<path d="M48.037 16.7179C47.6892 17.1015 47.7182 17.6944 48.1019 18.0421C48.4854 18.3899 49.0784 18.3608 49.4262 17.9773L50.9914 16.2506C52.1152 15.0096 52.0211 13.0843 50.7813 11.9583C50.1799 11.4128 49.4028 11.1334 48.5909 11.1738C47.7797 11.2134 47.0327 11.5666 46.4883 12.1678L40.4229 18.8556L37.3073 15.419C36.1814 14.1776 34.2558 14.0835 33.0142 15.2094C31.7728 16.3354 31.6788 18.2611 32.8046 19.5023L38.1727 25.4218C38.7485 26.0554 39.5686 26.4188 40.4227 26.4188C41.2777 26.4188 42.0982 26.0554 42.6746 25.4211L46.4834 21.2224C46.8313 20.8389 46.8026 20.246 46.419 19.8981C46.0356 19.5503 45.4424 19.579 45.0947 19.9626L41.2863 24.1608C41.0651 24.4041 40.7503 24.5438 40.4227 24.5438C40.096 24.5438 39.7816 24.4041 39.5609 24.1615L34.1934 18.2426C33.7622 17.7671 33.7983 17.0295 34.2738 16.5981C34.7496 16.1668 35.4872 16.2029 35.9182 16.6784L39.7281 20.8809C39.9058 21.0769 40.1579 21.1886 40.4226 21.1886H40.4227C40.6872 21.1886 40.9395 21.0769 41.1172 20.881L47.8777 13.4268C48.0861 13.1966 48.3718 13.0615 48.6825 13.0464C48.9936 13.0309 49.2912 13.1379 49.5213 13.3465C49.9965 13.7781 50.0326 14.5163 49.6021 14.9916L48.037 16.7179Z" fill="black"/>
</g>
<defs>
<clipPath id="clip0_3473_5922">
<rect width="64" height="64" fill="white"/>
</clipPath>
</defs>
</svg>
