<svg width="64" height="64" viewBox="0 0 64 64" fill="none" xmlns="http://www.w3.org/2000/svg">
<g clip-path="url(#clip0_3473_5954)">
<path d="M29.2072 44.6876C29.5616 45.0416 30.0421 45.2408 30.5436 45.2408C31.0446 45.2408 31.525 45.0421 31.8795 44.6876L38.6261 37.941C39.3644 37.2028 39.3644 36.0065 38.6261 35.2682C37.8883 34.5304 36.6915 34.5304 35.9537 35.2682L30.5436 40.6783L28.0768 38.2115C27.3385 37.4738 26.1422 37.4738 25.4039 38.2115C24.6661 38.9493 24.6661 40.1461 25.4039 40.8844L29.2072 44.6876Z" fill="black"/>
<path d="M32.0146 54.98C40.2866 54.98 47.0161 48.25 47.0161 39.978C47.0161 31.7061 40.2866 24.9766 32.0146 24.9766C23.7422 24.9766 17.0127 31.7061 17.0127 39.978C17.0127 48.25 23.7427 54.98 32.0146 54.98ZM32.0146 28.7559C38.2026 28.7559 43.2368 33.79 43.2368 39.978C43.2368 46.166 38.2026 51.2007 32.0146 51.2007C25.8267 51.2007 20.792 46.166 20.792 39.978C20.792 33.79 25.8267 28.7559 32.0146 28.7559Z" fill="black"/>
<path d="M57.168 4.02393H53.7212V1.88965C53.7212 0.846191 52.875 0 51.8315 0C50.7881 0 49.9419 0.846191 49.9419 1.88965V4.02393H46.2285V1.88965C46.2285 0.846191 45.3823 0 44.3384 0C43.2949 0 42.4487 0.846191 42.4487 1.88965V4.02393H21.5815V1.88965C21.5815 0.846191 20.7354 0 19.6914 0C18.6479 0 17.8018 0.846191 17.8018 1.88965V4.02393H14.0884V1.88965C14.0884 0.846191 13.2422 0 12.1982 0C11.1548 0 10.3086 0.846191 10.3086 1.88965V4.02393H6.86133C3.4917 4.02393 0.75 6.76562 0.75 10.1357V57.8887C0.75 61.2583 3.4917 64 6.86133 64H57.168C60.5381 64 63.2793 61.2583 63.2793 57.8887V10.1357C63.2793 6.76562 60.5376 4.02393 57.168 4.02393ZM59.4995 57.8887C59.4995 59.1743 58.4536 60.2207 57.168 60.2207H6.86133C5.57568 60.2207 4.5293 59.1743 4.5293 57.8887V19.7373H59.4995V57.8887ZM4.5293 10.1357C4.5293 8.84961 5.57568 7.80371 6.86133 7.80371H10.3086V9.93799C10.3086 10.9814 11.1548 11.8276 12.1987 11.8276C13.2422 11.8276 14.0884 10.9814 14.0884 9.93799V7.80371H17.8018V9.93799C17.8018 10.9814 18.6479 11.8276 19.6919 11.8276C20.7354 11.8276 21.5815 10.9814 21.5815 9.93799V7.80371H42.4487V9.93799C42.4487 10.9814 43.2949 11.8276 44.3389 11.8276C45.3823 11.8276 46.2285 10.9814 46.2285 9.93799V7.80371H49.9419V9.93799C49.9419 10.9814 50.7881 11.8276 51.8315 11.8276C52.8755 11.8276 53.7217 10.9814 53.7217 9.93799V7.80371H57.168C58.4536 7.80371 59.5 8.84961 59.5 10.1357V15.9575H4.5293V10.1357Z" fill="black"/>
</g>
<defs>
<clipPath id="clip0_3473_5954">
<rect width="64" height="64" fill="white"/>
</clipPath>
</defs>
</svg>
