<svg width="64" height="64" viewBox="0 0 64 64" fill="none" xmlns="http://www.w3.org/2000/svg">
<path d="M13.0625 54V51.25C13.0625 50.5263 12.4738 49.9375 11.75 49.9375H6C5.27625 49.9375 4.6875 50.5263 4.6875 51.25V54C4.6875 54.7238 5.27625 55.3125 6 55.3125H11.75C12.4738 55.3125 13.0625 54.7238 13.0625 54ZM11.1875 53.4375H6.5625V51.8125H11.1875V53.4375Z" fill="black"/>
<path d="M62.9188 32.7419C62.9188 27.2557 59.837 22.4764 55.3143 20.0422C55.3925 19.8301 55.4662 19.6162 55.5318 19.3997H58.4977C59.3608 19.3997 60.063 18.6975 60.063 17.8344V14.0406C60.063 13.1775 59.3608 12.4753 58.4977 12.4753H55.5317C55.3058 11.7291 55.0065 11.0061 54.6394 10.32L56.7363 8.22325C57.3467 7.61275 57.3467 6.61975 56.7363 6.00925L54.0538 3.32675C53.4434 2.71638 52.4502 2.71638 51.8398 3.32675L49.743 5.42362C49.0569 5.0565 48.3337 4.75725 47.5878 4.53125V1.56537C47.5877 0.70225 46.8854 0 46.0223 0H42.2285C41.3654 0 40.6632 0.70225 40.6632 1.56537V4.53137C39.917 4.75725 39.194 5.0565 38.5079 5.42362L36.4112 3.32675C35.8008 2.71638 34.8075 2.71638 34.1972 3.32675L31.5147 6.00938C30.9044 6.61975 30.9044 7.61275 31.5147 8.22325L33.6115 10.32C33.2444 11.0061 32.9452 11.7294 32.7192 12.4753H29.7533C28.8902 12.4753 28.1879 13.1775 28.1879 14.0406V15.6349H7.98891C7.12728 15.6349 6.42641 16.3357 6.42641 17.1974V35.1534H2.64453C1.78291 35.1534 1.08203 35.8542 1.08203 36.7159V57.1489C1.08203 58.0105 1.78291 58.7114 2.64453 58.7114H7.75041C8.26816 58.7114 8.68791 58.2918 8.68791 57.7739C8.68791 57.256 8.26816 56.8364 7.75041 56.8364H2.95703V37.0285H12.5953V43C12.5953 43.7238 13.184 44.3125 13.9078 44.3125H19.5099C20.2337 44.3125 20.8224 43.7238 20.8224 43V37.0285H30.4608V56.8365H12.1254C11.6077 56.8365 11.1879 57.2561 11.1879 57.774C11.1879 58.2919 11.6077 58.7115 12.1254 58.7115H17.8389H31.3984H43.763L47.468 63.4906C47.719 63.8144 48.0978 64 48.5073 64C48.9168 64 49.2957 63.8144 49.5465 63.4906L56.0897 55.0505C56.3995 54.6507 56.4539 54.1204 56.2314 53.6661C56.0089 53.2119 55.5564 52.9296 55.0505 52.9296H52.3328V46.6369C58.4284 44.9567 62.9188 39.3643 62.9188 32.7419ZM15.5808 17.5099H19.4057V23.117H15.5808V17.5099ZM18.9475 42.4375H14.4704V37.0285H18.9475V42.4375ZM26.685 35.1535H8.30141V17.5099H13.7058V23.6795C13.7058 24.4032 14.2945 24.992 15.0183 24.992H19.9682C20.6919 24.992 21.2807 24.4032 21.2807 23.6795V17.5099H26.685V35.1535ZM30.0629 14.3503H32.9515C33.649 14.3503 34.269 13.879 34.4594 13.2041C34.6724 12.4484 34.9744 11.7186 35.3573 11.0351C35.6999 10.4233 35.5947 9.65162 35.1015 9.15825L33.0594 7.11625L35.3042 4.8715L37.3463 6.91375C37.8397 7.407 38.6114 7.51187 39.2233 7.1695C39.9067 6.78675 40.6364 6.48463 41.3924 6.2715C42.067 6.08125 42.5383 5.46125 42.5383 4.76375V1.875H45.7128V4.76363C45.7128 5.46113 46.184 6.08113 46.8589 6.2715C47.6147 6.4845 48.3444 6.7865 49.0279 7.16937C49.6395 7.51188 50.4114 7.40675 50.9048 6.91362L52.9469 4.87138L55.1917 7.11613L53.1494 9.15825C52.6563 9.6515 52.551 10.4233 52.8937 11.0352C53.2764 11.7186 53.5785 12.4484 53.7917 13.2044C53.9819 13.879 54.6019 14.3503 55.2994 14.3503H58.1879V17.5247H55.2993C54.6018 17.5247 53.9818 17.996 53.7914 18.6709C53.7353 18.87 53.6712 19.0665 53.6027 19.2615C52.8958 18.9934 52.163 18.7785 51.4084 18.6236C51.7189 17.7862 51.8899 16.8816 51.8899 15.9374C51.8899 15.0405 51.737 14.1594 51.4358 13.3184C51.2613 12.8309 50.724 12.5772 50.237 12.752C49.7497 12.9266 49.4959 13.4633 49.6707 13.9508C49.899 14.5884 50.0149 15.2568 50.0149 15.9375C50.0149 16.8025 49.8265 17.624 49.4898 18.3645C49.165 18.3425 48.8377 18.3304 48.5074 18.3304C48.2449 18.3304 47.984 18.338 47.7249 18.3519C48.19 17.6613 48.4627 16.831 48.4627 15.9375C48.4627 13.5459 46.517 11.6003 44.1254 11.6003C41.8357 11.6003 39.9559 13.3841 39.7999 15.6349H38.2435C38.4017 12.5275 40.9795 10.048 44.1254 10.048C45.2552 10.048 46.3538 10.3702 47.3028 10.9799C47.7378 11.2596 48.3183 11.1336 48.5982 10.6979C48.878 10.2624 48.7518 9.68237 48.3162 9.4025C47.0643 8.59813 45.6153 8.173 44.1254 8.173C39.9455 8.173 36.5283 11.4934 36.3685 15.6349H30.0629V14.3503ZM41.6797 15.6613C41.8177 14.4334 42.8613 13.4753 44.1254 13.4753C45.483 13.4753 46.5877 14.5799 46.5877 15.9375C46.5877 17.2951 45.483 18.3997 44.1254 18.3997C43.7048 18.3997 43.3097 18.2924 42.9635 18.1052V17.1974C42.9635 16.431 42.4085 15.7931 41.6797 15.6613ZM28.56 35.1535V17.5099H41.0887V20.391C36.902 22.9153 34.096 27.5069 34.096 32.7417C34.096 33.5634 34.1662 34.3689 34.2989 35.1534H28.56V35.1535ZM32.3359 56.8364V37.0285H34.7468C36.2008 41.6861 39.9597 45.3354 44.6818 46.637V52.9297H41.964C41.4582 52.9297 41.0057 53.212 40.7832 53.6662C40.5607 54.1205 40.6149 54.6508 40.9248 55.0504L42.3095 56.8365L32.3359 56.8364ZM53.9079 54.8047L48.5074 61.771L43.1068 54.8047H45.2419C45.967 54.8047 46.5569 54.2147 46.5569 53.4896V47.0209C47.195 47.1076 47.8459 47.1534 48.5074 47.1534C49.1689 47.1534 49.8198 47.1076 50.4579 47.0209V53.4896C50.4579 54.2147 51.0478 54.8047 51.7729 54.8047H53.9079ZM48.5074 45.2784C41.5948 45.2784 35.9709 39.6545 35.9709 32.7419C35.9709 25.8293 41.5948 20.2054 48.5074 20.2054C55.42 20.2054 61.0438 25.8293 61.0438 32.7419C61.0438 39.6545 55.42 45.2784 48.5074 45.2784Z" fill="black"/>
<path d="M58.093 34.7288C57.5982 34.5757 57.0734 34.8527 56.9203 35.3473C55.773 39.0554 52.3919 41.5468 48.5068 41.5468C43.6514 41.5468 39.7013 37.5965 39.7013 32.7413C39.7013 27.8858 43.6515 23.9357 48.5068 23.9357C50.6232 23.9357 52.6685 24.6974 54.2664 26.0803C55.8484 27.4498 56.8938 29.336 57.2097 31.3918C57.2883 31.9035 57.7659 32.2549 58.2787 32.176C58.7905 32.0974 59.1415 31.6188 59.0629 31.107C58.6795 28.6117 57.4118 26.323 55.4934 24.6625C53.5549 22.9845 51.0737 22.0605 48.5067 22.0605C42.6174 22.0605 37.8262 26.8519 37.8262 32.7412C37.8262 38.6304 42.6174 43.4217 48.5067 43.4217C50.8339 43.4217 53.0459 42.686 54.9038 41.2945C56.6993 39.9495 58.0515 38.0343 58.7114 35.9013C58.8647 35.4069 58.5877 34.8819 58.093 34.7288Z" fill="black"/>
<path d="M48.5078 38.9052C49.0256 38.9052 49.4453 38.4856 49.4453 37.9677V37.4703H50.2462C51.7995 37.4703 53.0633 36.2066 53.0633 34.6532C53.0633 33.0999 51.7995 31.8361 50.2462 31.8361H46.7726C46.2513 31.8361 45.8273 31.412 45.8271 30.8909V30.8335C45.8271 30.3121 46.2514 29.888 46.7726 29.888H50.9489C51.4668 29.888 51.8864 29.4684 51.8864 28.9505C51.8864 28.4326 51.4668 28.013 50.9489 28.013H49.4453V27.5156C49.4453 26.9977 49.0256 26.5781 48.5078 26.5781C47.9899 26.5781 47.5703 26.9977 47.5703 27.5156V28.013H46.7726C45.2174 28.013 43.9521 29.2782 43.9521 30.8335V30.891C43.9524 32.446 45.2176 33.7112 46.7726 33.7112H50.2462C50.7657 33.7112 51.1883 34.1339 51.1883 34.6534C51.1883 35.1728 50.7657 35.5954 50.2462 35.5954H46.0344C45.5165 35.5954 45.0969 36.015 45.0969 36.5329C45.0969 37.0508 45.5165 37.4704 46.0344 37.4704H47.5703V37.9679C47.5703 38.4856 47.9899 38.9052 48.5078 38.9052Z" fill="black"/>
</svg>
