<svg width="64" height="64" viewBox="0 0 64 64" fill="none" xmlns="http://www.w3.org/2000/svg">
<g clip-path="url(#clip0_3473_5958)">
<path d="M55.7158 46.3834C56.7276 45.2164 57.2849 43.7217 57.2849 42.1744C57.2849 38.6277 54.3997 35.7422 50.8534 35.7422C48.986 35.7422 47.2137 36.5523 45.9907 37.9649C44.979 39.1327 44.4219 40.6277 44.4219 42.1744C44.4219 45.7208 47.307 48.6059 50.8534 48.6059C52.721 48.6058 54.4934 47.7957 55.7158 46.3834ZM46.2984 42.1744C46.2984 41.0789 46.6928 40.0202 47.4091 39.1936C47.4091 39.1934 47.4093 39.1933 47.4094 39.1933C48.2756 38.1926 49.531 37.6187 50.8534 37.6187C53.3651 37.6187 55.4085 39.6624 55.4085 42.1746C55.4085 43.2702 55.0143 44.3286 54.2975 45.1551C53.4313 46.1558 52.1759 46.7297 50.8534 46.7297C48.3417 46.7294 46.2984 44.6861 46.2984 42.1744Z" fill="black"/>
<path d="M59.5205 33.5766C57.2773 31.3153 54.3039 30.0289 51.1483 29.9547C47.8243 29.8764 44.6876 31.1106 42.3131 33.4298C39.938 35.7497 38.6299 38.8556 38.6299 42.1753C38.6299 43.7634 38.9325 45.3122 39.5294 46.7784C39.7246 47.2583 40.2721 47.4889 40.752 47.2937C41.2319 47.0983 41.4626 46.5509 41.2673 46.0711C40.7623 44.8306 40.5064 43.5198 40.5064 42.1753C40.5064 39.3652 41.6136 36.7361 43.6243 34.7722C45.6343 32.8091 48.2916 31.7632 51.104 31.8307C53.7725 31.8934 56.2885 32.9829 58.1884 34.8982C60.0883 36.8133 61.1578 39.3382 61.2001 42.0074C61.2365 44.3099 60.5323 46.5001 59.157 48.3503L54.0551 55.3852C53.1359 56.6529 52.502 58.0718 52.1714 59.6021L51.7895 61.3692C51.6949 61.8067 51.3015 62.1239 50.854 62.1239C50.4065 62.1239 50.0131 61.8064 49.9186 61.3691L49.5366 59.6021C49.2059 58.0717 48.572 56.6528 47.6526 55.3851L43.2446 49.3069C42.9405 48.8876 42.3539 48.7941 41.9343 49.0983C41.5149 49.4026 41.4214 49.9891 41.7256 50.4087L46.1336 56.4867C46.8993 57.5424 47.4271 58.7239 47.7025 59.9986L48.0844 61.7656C48.3641 63.0607 49.5289 64.0004 50.8538 64.0004C52.1786 64.0004 53.3434 63.0604 53.6231 61.7656L54.0051 59.9984C54.2805 58.7241 54.8083 57.5426 55.5739 56.4867L60.6691 49.4607C62.2869 47.2846 63.119 44.6969 63.076 41.9776C63.0263 38.8211 61.7635 35.8376 59.5205 33.5766Z" fill="black"/>
<path d="M10.8961 15.3669C12.4456 15.3669 13.9163 14.6945 14.9304 13.523C15.7701 12.5545 16.2326 11.3142 16.2326 10.0304C16.2326 9.25136 16.0672 8.49873 15.7409 7.79323C15.5234 7.32286 14.9658 7.11786 14.4957 7.33536C14.0253 7.55273 13.8204 8.11036 14.0378 8.58061C14.2489 9.03748 14.3562 9.52536 14.3562 10.0304C14.3562 10.8626 14.0566 11.6665 13.5122 12.2942C12.8542 13.0544 11.9007 13.4905 10.8961 13.4905C8.98819 13.4905 7.43607 11.9384 7.43607 10.0305C7.43607 9.19836 7.7357 8.39411 8.28007 7.76598C8.93807 7.00586 9.89157 6.56973 10.8962 6.56973C11.0734 6.56973 11.2513 6.58323 11.4251 6.60973C11.9373 6.68848 12.4159 6.33648 12.4943 5.82423C12.5727 5.31211 12.2211 4.83323 11.7088 4.75498C11.4414 4.71411 11.1681 4.69336 10.8961 4.69336C9.34657 4.69336 7.87582 5.36573 6.86145 6.53761C6.02195 7.50661 5.55957 8.74711 5.55957 10.0305C5.5597 12.9729 7.95357 15.3669 10.8961 15.3669Z" fill="black"/>
<path d="M6.96563 21.5995C7.56338 22.4237 7.97538 23.3459 8.19038 24.3409L8.49613 25.7559C8.73863 26.8783 9.748 27.6928 10.8964 27.6928C12.0448 27.6928 13.0541 26.8782 13.2966 25.7559L13.6024 24.341C13.8174 23.3459 14.2295 22.4237 14.8271 21.5997L18.9055 15.9759C20.2255 14.2004 20.9046 12.0889 20.8695 9.86992C20.8287 7.29417 19.7985 4.85955 17.9684 3.0148C16.1379 1.1698 13.7118 0.120295 11.1365 0.0595451C8.4245 -0.00482993 5.865 1.0028 3.92737 2.89517C1.98937 4.78804 0.921875 7.3223 0.921875 10.031C0.921875 12.1908 1.6015 14.2465 2.88075 15.967L6.96563 21.5995ZM5.2385 4.23742C6.7645 2.74692 8.76625 1.93305 10.895 1.93305C10.9604 1.93305 11.0265 1.9338 11.0921 1.93542C13.1801 1.98454 15.149 2.83717 16.636 4.33617C18.123 5.83517 18.9601 7.8108 18.9931 9.89955C19.0216 11.7015 18.4705 13.4155 17.393 14.8653L13.3081 20.4978C12.5569 21.5338 12.0388 22.6934 11.7684 23.9444L11.4626 25.3593C11.4054 25.6242 11.1673 25.8163 10.8965 25.8163C10.6258 25.8163 10.3875 25.6242 10.3304 25.3594L10.0246 23.9445C9.75425 22.6937 9.23625 21.534 8.48475 20.4979L4.39337 14.8564C3.35012 13.453 2.79863 11.7844 2.79863 10.031C2.79825 7.83192 3.665 5.77429 5.2385 4.23742Z" fill="black"/>
<path d="M53.9202 10.7452C53.5707 11.1277 53.5974 11.7212 53.9799 12.0707C54.1599 12.2352 54.3864 12.3162 54.6126 12.3162C54.8668 12.3162 55.1204 12.2134 55.3054 12.0109L55.3217 11.9934C55.3443 11.969 55.3668 11.9445 55.3874 11.9205C56.0986 11.1004 56.4902 10.05 56.4902 8.96286C56.4902 6.47086 54.4629 4.44336 51.9712 4.44336C50.6697 4.44336 49.4308 5.00536 48.5723 5.98536C48.2309 6.37511 48.2701 6.96786 48.6598 7.30923C49.0496 7.65073 49.6423 7.61161 49.9838 7.22173C50.4861 6.64848 51.2104 6.31961 51.9713 6.31961C53.4284 6.31961 54.6139 7.50536 54.6139 8.96273C54.6139 9.59836 54.3852 10.2121 53.9688 10.6925L53.9202 10.7452Z" fill="black"/>
<path d="M44.9038 5.04969C45.3245 5.35207 45.9109 5.25582 46.2131 4.83507C47.5826 2.92844 49.7998 1.82094 52.1429 1.87832C53.97 1.92132 55.6929 2.66757 56.9944 3.97932C58.2958 5.29119 59.0284 7.02019 59.0573 8.84782C59.0821 10.4247 58.5999 11.9248 57.6561 13.1947L56.6863 14.5321C56.382 14.9514 56.4755 15.5381 56.8949 15.8423C57.0613 15.9631 57.2539 16.0211 57.4448 16.0211C57.7351 16.0211 58.0215 15.8866 58.205 15.6336L59.1684 14.3051C60.3545 12.7094 60.9649 10.8121 60.9333 8.81807C60.8968 6.50332 59.9708 4.31544 58.3264 2.65782C56.6816 1.00007 54.5014 0.0569425 52.187 0.00244246C49.2231 -0.0665575 46.4205 1.32994 44.6891 3.74044C44.6064 3.85582 44.3603 4.44357 44.7546 4.91594C44.7986 4.96469 44.8481 5.00982 44.9038 5.04969Z" fill="black"/>
<path d="M43.3695 56.1831C43.3709 55.9231 43.2659 55.664 43.0566 55.4775C42.6699 55.1326 42.0767 55.1666 41.732 55.5533C41.1361 56.2216 40.515 56.8341 39.8837 57.3773C38.5597 57.8353 37.2057 58.1841 35.8269 58.4251C36.8731 56.1737 37.7706 53.0781 38.4562 49.3298C38.5496 48.8202 38.2119 48.3315 37.7022 48.2382C37.1932 48.145 36.7039 48.4825 36.6106 48.9922C35.8379 53.2167 34.7635 56.6423 33.5651 58.7208C32.782 58.7891 31.9922 58.825 31.196 58.825C30.3969 58.825 29.6066 58.7876 28.8252 58.7182C27.4431 56.327 26.3016 52.3273 25.5246 47.4345C27.3816 47.5853 29.2782 47.6632 31.196 47.6632C32.9721 47.6632 34.7652 47.596 36.5254 47.4633C37.042 47.4243 37.4294 46.974 37.3905 46.4573C37.3515 45.9406 36.9001 45.5542 36.3845 45.5922C34.6711 45.7213 32.9255 45.7868 31.196 45.7868C29.1787 45.7868 27.1882 45.6981 25.2465 45.5287C24.7401 41.7386 24.443 37.5071 24.4057 33.1258H39.6202C40.1384 33.1258 40.5585 32.7058 40.5585 32.1876C40.5585 31.7536 40.2634 31.3895 39.8632 31.2823C39.8292 26.9501 39.5521 22.7963 39.0712 19.0435C42.2026 19.4106 45.1792 19.9937 47.8986 20.7683C48.4759 22.849 48.8976 25.0326 49.144 27.259C49.1971 27.739 49.6035 28.094 50.0754 28.094C50.1097 28.094 50.1446 28.0921 50.1797 28.0882C50.6947 28.0312 51.066 27.5675 51.009 27.0525C50.797 25.1367 50.46 23.2496 50.0101 21.4258C52.5596 22.2918 54.8285 23.339 56.7182 24.5436C57.1896 26.1196 57.5167 27.7457 57.6889 29.4038C57.7389 29.8863 58.1462 30.2452 58.6209 30.2452C58.6532 30.2452 58.686 30.2436 58.719 30.2401C59.2344 30.1866 59.6087 29.7255 59.5554 29.2101C58.8315 22.2368 55.5606 15.7913 50.3456 11.0612C45.0934 6.29745 38.2926 3.67383 31.1961 3.67383C28.301 3.67383 25.4441 4.10658 22.705 4.95995C22.2102 5.11408 21.9341 5.64008 22.0882 6.13483C22.2424 6.62945 22.768 6.9052 23.2631 6.75158C24.3459 6.4142 25.4487 6.14808 26.5656 5.95233C25.3216 8.63283 24.2955 12.4933 23.5884 17.1245C22.5197 17.2416 21.462 17.3807 20.4212 17.5475C19.9096 17.6295 19.5614 18.1107 19.6434 18.6223C19.7254 19.1341 20.2066 19.4817 20.7182 19.4002C21.5749 19.2628 22.4425 19.1432 23.3191 19.0406C23.1691 20.2116 23.0385 21.4243 22.9291 22.6735C22.8839 23.1896 23.2656 23.6448 23.7817 23.69C23.8096 23.6925 23.8372 23.6936 23.8647 23.6936C24.3459 23.6936 24.7555 23.3256 24.7982 22.8372C24.9187 21.4627 25.0671 20.1298 25.2394 18.8473C27.1925 18.6772 29.1827 18.5883 31.1961 18.5883C33.2134 18.5883 35.2039 18.6771 37.1456 18.8465C37.652 22.6366 37.9491 26.8681 37.9864 31.2493H24.4071C24.4195 29.755 24.4597 28.262 24.5306 26.7988C24.5556 26.2812 24.1565 25.8413 23.639 25.8163C23.1192 25.7927 22.6815 26.1906 22.6565 26.708C22.5842 28.2012 22.5432 29.7246 22.5309 31.2492H12.9885C12.9946 30.9768 13.003 30.6976 13.0144 30.4061C13.0346 29.8883 12.6314 29.4522 12.1136 29.4318C11.5982 29.4096 11.1596 29.8147 11.1394 30.3326C11.127 30.6495 11.1177 30.9533 11.1114 31.2491H4.57599C4.66237 28.7665 5.09024 26.3212 5.85337 23.9673C6.01312 23.4745 5.74299 22.9453 5.25012 22.7856C4.75712 22.6258 4.22812 22.896 4.06837 23.3888C3.14887 26.226 2.68262 29.1861 2.68262 32.1873C2.68262 39.8036 5.64849 46.964 11.034 52.3496C16.4196 57.7351 23.5799 60.701 31.1962 60.701C35.4985 60.701 39.6344 59.7657 43.4887 57.9213C43.9561 57.6977 44.1537 57.1375 43.9301 56.6702C43.8139 56.4281 43.6069 56.2591 43.3695 56.1831ZM38.8026 17.127C38.1025 12.538 37.084 8.6612 35.8284 5.95608C37.2125 6.19945 38.5709 6.55158 39.8922 7.00745C42.2324 9.02395 44.3027 11.8725 45.8854 15.261C46.3894 16.3401 46.8437 17.476 47.2462 18.6547C44.6074 17.9701 41.7666 17.4541 38.8026 17.127ZM55.7385 21.819C53.863 20.8401 51.7352 19.9841 49.4146 19.2677C48.9011 17.5863 48.2897 15.9748 47.5855 14.467C46.6432 12.4496 45.5326 10.6081 44.2964 8.9927C46.0019 9.9572 47.6092 11.1132 49.0847 12.4516C51.9871 15.084 54.2445 18.2846 55.7385 21.819ZM31.196 16.7123C29.2807 16.7123 27.3844 16.7896 25.5196 16.9397C26.3081 12.0118 27.4692 8.00833 28.8274 5.65558C29.6126 5.58645 30.4026 5.55058 31.196 5.55058C31.9907 5.55058 32.7814 5.5867 33.5662 5.65645C34.9486 8.04783 36.0904 12.0481 36.8675 16.9418C35.0104 16.7911 33.114 16.7123 31.196 16.7123ZM26.5642 58.4212C25.1681 58.1755 23.8095 57.8198 22.4967 57.3651C19.3167 54.6255 16.7916 50.5495 15.1432 45.722C17.7826 46.4066 20.625 46.9217 23.5894 47.2488C24.2896 51.8387 25.3085 55.7158 26.5642 58.4212ZM23.3207 45.3321C20.1875 44.9648 17.2094 44.3812 14.4887 43.6059C13.5847 40.3402 13.0636 36.7938 12.9875 33.1261H22.5291C22.5644 37.4465 22.8412 41.5887 23.3207 45.3321ZM4.57712 33.1261H11.1111C11.1795 36.5331 11.6189 39.8468 12.3846 42.9506C9.83649 42.0853 7.56874 41.039 5.67924 39.8355C5.03787 37.6985 4.65799 35.4498 4.57712 33.1261ZM6.66199 42.5616C8.53599 43.5388 10.6631 44.3926 12.9811 45.1078C14.1764 49.0165 15.9076 52.5202 18.0751 55.3621C13.0005 52.4778 8.95999 47.976 6.66199 42.5616Z" fill="black"/>
</g>
<defs>
<clipPath id="clip0_3473_5958">
<rect width="64" height="64" fill="white"/>
</clipPath>
</defs>
</svg>
