<svg width="64" height="64" viewBox="0 0 64 64" fill="none" xmlns="http://www.w3.org/2000/svg">
<path d="M64 37.656H62.9789C62.613 35.1002 61.5115 32.7784 59.8952 30.9138L50.1504 14.6735L50.123 14.6293C48.4015 11.9327 45.385 10.7258 42.4376 11.5553C39.5915 12.3563 37.7149 14.8033 37.6566 17.7897L41.4059 17.8628C41.4365 16.2899 42.4836 15.438 43.4534 15.165C44.4989 14.8707 45.9641 15.1015 46.9494 16.627L53.0054 26.7198C52.0216 26.4845 50.9958 26.359 49.941 26.359C45.49 26.359 41.5481 28.5785 39.1625 31.9685C37.1897 30.2874 34.6899 29.3583 31.9998 29.3583C29.3098 29.3583 26.81 30.2875 24.8372 31.9685C22.4516 28.5785 18.5098 26.3589 14.0588 26.3589C13.004 26.3589 11.9781 26.4843 10.9944 26.7197L17.0504 16.6269C18.0357 15.1013 19.5005 14.8705 20.5464 15.1649C21.5161 15.4378 22.5633 16.2898 22.5939 17.8627L26.3431 17.7895C26.2849 14.8032 24.4082 12.3562 21.5621 11.5552C18.6147 10.7255 15.5981 11.9324 13.8767 14.6292L4.10475 30.9138C2.4885 32.7783 1.387 35.1002 1.02112 37.656H0V41.406H1.02112C1.93412 47.784 7.4325 52.7029 14.059 52.7029C21.322 52.7029 27.2309 46.794 27.2309 39.531C27.2309 38.1185 27.0065 36.7577 26.593 35.4812C27.9766 33.9635 29.9006 33.1087 31.9999 33.1085C34.0992 33.1085 36.0234 33.9634 37.407 35.481C36.9935 36.7577 36.7691 38.1185 36.7691 39.531C36.7691 46.794 42.678 52.7029 49.941 52.7029C56.5674 52.7029 62.0659 47.784 62.9789 41.406H64V37.656ZM14.059 48.9529C8.86375 48.9529 4.63713 44.7263 4.63713 39.531C4.63713 34.3358 8.86375 30.1092 14.059 30.1092C19.2543 30.1092 23.4809 34.3358 23.4809 39.531C23.4809 44.7263 19.2541 48.9529 14.059 48.9529ZM49.941 48.9529C44.7458 48.9529 40.5191 44.7263 40.5191 39.531C40.5191 34.3358 44.7458 30.1092 49.941 30.1092C55.1363 30.1092 59.3629 34.3358 59.3629 39.531C59.3629 44.7263 55.1363 48.9529 49.941 48.9529Z" fill="black"/>
</svg>
