<svg width="64" height="64" viewBox="0 0 64 64" fill="none" xmlns="http://www.w3.org/2000/svg">
<g clip-path="url(#clip0_4345_6430)">
<path d="M63.4393 31.178L36.2311 4.4368C33.898 2.14342 30.1019 2.14355 27.7689 4.43667L0.560758 31.178C-0.177867 31.904 -0.188117 33.0912 0.537758 33.8297C1.26363 34.568 2.45076 34.5785 3.18926 33.8527L5.30663 31.7715V53.1212C5.30663 57.621 8.96763 61.282 13.4675 61.282H50.5325C55.0324 61.282 58.6934 57.621 58.6934 53.1212V31.7715L60.8108 33.8527C61.1759 34.2114 61.6505 34.3904 62.1249 34.3904C62.6101 34.3904 63.0953 34.2032 63.4623 33.8298C64.1881 33.0912 64.1779 31.904 63.4393 31.178ZM54.9433 53.1212C54.9433 55.5533 52.9645 57.532 50.5324 57.532H13.4675C11.0354 57.532 9.05663 55.5533 9.05663 53.1212V28.0859L30.3975 7.11117C30.6184 6.89405 30.874 6.73117 31.1469 6.62255C31.8973 6.32405 32.7785 6.43592 33.4306 6.95842C33.4899 7.00592 33.5473 7.0568 33.6025 7.11117L54.9434 28.0858V53.1212H54.9433Z" fill="black"/>
<path d="M26.366 24.6211V30.655H20.3318C19.2963 30.655 18.4568 31.4945 18.4568 32.53V40.0132C18.4568 41.0487 19.2963 41.8882 20.3318 41.8882H26.366V47.922C26.366 48.9575 27.2055 49.797 28.241 49.797H35.7243C36.7598 49.797 37.5993 48.9575 37.5993 47.922V41.8882H43.6325C44.668 41.8882 45.5075 41.0487 45.5075 40.0132V32.53C45.5075 31.4945 44.668 30.655 43.6325 30.655H37.5993V24.6211C37.5993 23.5856 36.7598 22.7461 35.7243 22.7461H28.241C27.2055 22.7461 26.366 23.5856 26.366 24.6211ZM30.116 32.53V26.4961H33.8493V32.53C33.8493 33.5655 34.6888 34.405 35.7243 34.405H41.7575V38.1382H35.7243C34.6888 38.1382 33.8493 38.9777 33.8493 40.0132V46.047H30.116V40.0132C30.116 38.9777 29.2765 38.1382 28.241 38.1382H22.2068V34.405H28.241C29.2765 34.405 30.116 33.5655 30.116 32.53Z" fill="black"/>
</g>
<defs>
<clipPath id="clip0_4345_6430">
<rect width="64" height="64" fill="white"/>
</clipPath>
</defs>
</svg>
