<?xml version="1.0" encoding="UTF-8"?>
<svg id="Layer_1" xmlns="http://www.w3.org/2000/svg" xmlns:xlink="http://www.w3.org/1999/xlink" version="1.1" viewBox="0 0 107 40">
  <!-- Generator: Adobe Illustrator 30.1.0, SVG Export Plug-In . SVG Version: 2.1.1 Build 136)  -->
  <defs>
    <style>
      .st0 {
        fill: none;
      }

      .st1 {
        fill: #fff;
      }

      .st2 {
        clip-path: url(#clippath);
      }
    </style>
    <clipPath id="clippath">
      <rect class="st0" x=".5" y="0" width="106" height="40"/>
    </clipPath>
  </defs>
  <g class="st2">
    <g>
      <path class="st1" d="M27,12.5h-8.7V1.6C18.3.7,17.6,0,16.7,0h-4.6C11.3,0,10.6.7,10.6,1.6v10.9H1.8c-.7,0-1.3.6-1.3,1.3v2.3h10.7l.8-2.6c0-.1.2-.2.3-.2.1,0,.2.1.3.3l1.4,8.8,1.2-15c0-.2.1-.3.3-.3s.3.1.3.3l1,10,.6-1.1c0,0,.1-.2.3-.2h10.9v-2.3c0-.7-.6-1.3-1.3-1.3Z"/>
      <path class="st1" d="M16.7,18.5c0,.1-.2.2-.3.2-.1,0-.2-.1-.2-.3l-.7-7.6-1.1,14.1c0,.2-.1.3-.3.3-.1,0-.3-.1-.3-.3l-1.5-10-.5,1.6c0,.1-.1.2-.3.2H.5v2.4c0,.7.6,1.3,1.3,1.3h8.7v17.9c0,.9.7,1.6,1.6,1.6h4.6c.9,0,1.6-.7,1.6-1.6v-17.9h8.7c.7,0,1.3-.6,1.3-1.3v-2.4h-10.7l-1,1.8h0Z"/>
      <path class="st1" d="M64.8,26.4c-.6,2.3-1.8,5.6-2.5,6.8-1.3.3-4.6,1.1-7.9,1.1-10.5,0-15.4-7.1-15.4-14s6.7-14.6,16.4-14.6,6.4.8,7.8,1c.2,2,.6,4.7.9,6.9l-1.7.4c-.8-2.9-1.9-4.7-3.9-5.6-1.1-.5-2.6-.8-4.4-.8-7.1,0-10.5,5.4-10.5,11.8s4.6,12.8,11,12.8,6.3-2.1,8.5-6.5l1.6.6h0Z"/>
      <path class="st1" d="M80.6,6.3c3.1,0,5.6.5,7.3,1.8,1.7,1.2,2.9,3.2,2.9,6,0,5.8-4.7,8.3-8.8,8.6-.7,0-1.4,0-1.9,0l-3.2-.8v5.9c0,3.6.2,3.7,4.3,4v1.6h-12.2v-1.6c3.8-.3,3.9-.6,3.9-4v-16c0-3.8-.5-3.9-3.9-4.1v-1.6h11.5ZM77,20.2c.5.3,1.7.6,3.2.6,3,0,6.3-1.5,6.3-6.4s-3-6.3-6.5-6.3-2.2.2-2.5.5c-.3.3-.5.7-.5,1.7v9.9h0Z"/>
      <path class="st1" d="M94.7,33.6v-1.6c3.6-.3,3.9-.4,3.9-4v-16c0-3.6-.3-3.8-3.9-4.1v-1.6h11.8v1.6c-3.6.3-3.9.4-3.9,4.1v16c0,3.6.4,3.8,3.9,4v1.6h-11.8Z"/>
    </g>
  </g>
</svg>