<svg width="64" height="64" viewBox="0 0 64 64" fill="none" xmlns="http://www.w3.org/2000/svg">
<g clip-path="url(#clip0_3473_5949)">
<path d="M62.125 42.0117H38.2881C37.4792 39.3041 34.9671 37.3242 32 37.3242C29.0329 37.3242 26.5208 39.3041 25.7119 42.0117H1.875C0.8395 42.0117 0 42.8512 0 43.8867C0 44.9222 0.8395 45.7617 1.875 45.7617H25.7119C26.5208 48.4693 29.0329 50.4492 32 50.4492C34.9671 50.4492 37.4792 48.4693 38.2881 45.7617H62.125C63.1605 45.7617 64 44.9222 64 43.8867C64 42.8512 63.1605 42.0117 62.125 42.0117ZM32 46.6992C30.4491 46.6992 29.1875 45.4375 29.1875 43.8867C29.1875 42.336 30.4491 41.0742 32 41.0742C33.5508 41.0742 34.8125 42.336 34.8125 43.8867C34.8125 45.4375 33.5508 46.6992 32 46.6992Z" fill="black"/>
<path d="M62.125 55.5625H53.6637C52.8549 52.8549 50.3428 50.875 47.3756 50.875C44.4085 50.875 41.8964 52.8549 41.0875 55.5625H1.875C0.8395 55.5625 0 56.402 0 57.4375C0 58.473 0.8395 59.3125 1.875 59.3125H41.0875C41.8964 62.0201 44.4085 64 47.3756 64C50.3428 64 52.8549 62.0201 53.6637 59.3125H62.125C63.1605 59.3125 64 58.473 64 57.4375C64 56.402 63.1605 55.5625 62.125 55.5625ZM47.3756 60.25C45.8249 60.25 44.5631 58.9882 44.5631 57.4375C44.5631 55.8868 45.8249 54.625 47.3756 54.625C48.9264 54.625 50.1881 55.8868 50.1881 57.4375C50.1881 58.9882 48.9264 60.25 47.3756 60.25Z" fill="black"/>
<path d="M62.125 0H6.20013C2.78138 0 0 2.78138 0 6.20013C0 9.14225 2.0605 11.6105 4.81375 12.2421C4.44412 13.0356 4.23637 13.919 4.23637 14.8504C4.23637 18.2691 7.01775 21.0505 10.4365 21.0505H13.3061C13.7817 25.8889 16.0821 30.3936 19.7827 33.6241C21.6064 35.2159 24.1125 35.5806 26.3236 34.5757C28.5522 33.5629 29.9366 31.4161 29.9366 28.9732V28.8088C29.9366 27.0732 29.1782 25.394 27.8557 24.2016C26.3249 22.8213 25.5111 20.8506 25.6231 18.7951C25.8096 15.3755 28.636 12.57 32.0578 12.4082C33.9272 12.3197 35.7038 12.9825 37.058 14.2743C38.414 15.5676 39.1606 17.3079 39.1606 19.1744C39.1606 21.1045 38.3284 22.9501 36.8771 24.2379C35.5805 25.3885 34.8369 27.0544 34.8369 28.8083V28.973C34.8369 31.416 36.2215 33.5629 38.4504 34.5759C39.2775 34.9519 40.1456 35.136 41.0044 35.136C42.4403 35.136 43.8489 34.6205 44.9896 33.6246C47.5532 31.3868 49.4512 28.5569 50.535 25.3757H62.125C63.1605 25.3757 64 24.5362 64 23.5007V1.875C64 0.8395 63.1605 0 62.125 0ZM3.75 6.20013C3.75 4.84913 4.84913 3.75 6.20013 3.75H21.0099C19.1895 5.09625 17.6154 6.75663 16.3673 8.65025H6.20013C4.84913 8.65025 3.75 7.55113 3.75 6.20013ZM7.9865 14.8503C7.9865 13.4993 9.08562 12.4001 10.4366 12.4001H14.4497C13.863 13.9486 13.4709 15.5918 13.3045 17.3004H10.4365C9.08562 17.3005 7.9865 16.2014 7.9865 14.8503ZM60.25 21.6255H49.1395C48.284 21.6255 47.5371 22.2045 47.3237 23.0329C46.5466 26.0509 44.8867 28.7365 42.5236 30.7994C41.8122 31.4205 40.8695 31.556 40.002 31.1618C39.1159 30.7591 38.587 29.9408 38.587 28.9729V28.8081C38.587 28.1256 38.871 27.482 39.3662 27.0426C41.6189 25.0438 42.9108 22.1757 42.9108 19.1742C42.9108 16.2725 41.7515 13.5685 39.6464 11.5606C37.6672 9.67275 35.109 8.65 32.3942 8.65C32.2237 8.65 32.0522 8.654 31.8806 8.66212C29.2881 8.78475 26.8371 9.86788 24.9792 11.7119C23.1211 13.5561 22.02 15.9991 21.8787 18.5907C21.7048 21.7834 22.968 24.8435 25.3446 26.9864C25.8798 27.4689 26.1866 28.133 26.1866 28.8085V28.973C26.1866 29.9408 25.6579 30.759 24.772 31.1615C23.904 31.5559 22.9608 31.4202 22.2488 30.7987C18.8893 27.8662 16.9625 23.6292 16.9625 19.174C16.9626 10.6692 23.8819 3.75 32.3869 3.75H60.25V21.6255Z" fill="black"/>
</g>
<defs>
<clipPath id="clip0_3473_5949">
<rect width="64" height="64" fill="white"/>
</clipPath>
</defs>
</svg>
