<svg width="64" height="64" viewBox="0 0 64 64" fill="none" xmlns="http://www.w3.org/2000/svg">
<g clip-path="url(#clip0_4345_6632)">
<path d="M63.0625 41.9993H61.022C60.7694 37.2746 58.6146 32.8853 55.0104 29.7858C54.862 28.3664 54.0209 27.1086 52.737 26.4348C49.9717 24.9841 46.8481 24.2172 43.7038 24.2172C42.3188 24.2172 40.9364 24.3633 39.5955 24.6517C38.7006 24.8441 37.9186 25.3183 37.333 25.9679C35.7206 24.2676 33.6758 23.0386 31.4438 22.4022V9.61844C31.4438 9.10069 31.024 8.68094 30.5063 8.68094C29.9885 8.68094 29.5688 9.10069 29.5688 9.61844V22.0149C29.1974 21.9667 28.8229 21.9346 28.4463 21.9191V16.9547C28.4463 16.9541 28.4464 16.9534 28.4464 16.9528V3.64594C28.447 3.33706 28.6984 3.08594 29.0075 3.08594C29.317 3.08594 29.5688 3.33769 29.5688 3.64719V5.86844C29.5688 6.38619 29.9885 6.80594 30.5063 6.80594C31.024 6.80594 31.4438 6.38619 31.4438 5.86844V3.64719C31.4438 2.30381 30.3509 1.21094 29.0075 1.21094C28.2957 1.21094 27.6564 1.51956 27.2106 2.00781C24.3291 0.833313 21.5474 1.81194 18.8505 2.76269C16.1899 3.70056 13.6769 4.58644 11.2595 3.28606C10.9691 3.12981 10.6178 3.13756 10.3345 3.30694C10.0513 3.47619 9.87788 3.78181 9.87788 4.11169V17.8826C9.87788 18.2276 10.0674 18.5447 10.3713 18.7082C11.5663 19.3511 12.7439 19.5961 13.9054 19.5961C15.803 19.5961 17.6577 18.9423 19.4737 18.3019C21.954 17.4277 24.3056 16.5996 26.5711 17.5443V21.9796C21.7552 22.4817 17.5946 25.6383 15.834 30.1991C12.6214 30.7994 9.69863 32.6093 7.7325 35.2918C7.42638 35.7094 7.51688 36.2961 7.9345 36.6022C8.35188 36.9082 8.93875 36.8178 9.24487 36.4002C11.3309 33.5539 14.674 31.8548 18.1875 31.8548C21.9042 31.8548 25.4135 33.7652 27.4545 36.8682C26.9851 38.1281 26.6596 39.4504 26.4929 40.8134C25.5457 37.1108 22.1816 34.3652 18.188 34.3652C13.7785 34.3652 10.1372 37.7124 9.66862 41.9993H7.14488C7.2195 41.1119 7.39962 40.2401 7.68437 39.3973C7.85012 38.9068 7.58675 38.3748 7.09625 38.2091C6.606 38.0436 6.07375 38.3066 5.908 38.7972C5.55787 39.8336 5.34388 40.9072 5.26538 41.9993H0.9375C0.41975 41.9993 0 42.4191 0 42.9368C0 48.1043 4.20412 52.3086 9.37175 52.3086H11.2657C11.7284 55.9587 14.8507 58.7909 18.6244 58.7909H46.7249C50.4985 58.7909 53.6209 55.9586 54.0835 52.3086H54.6284C59.796 52.3086 64.0001 48.1044 64.0001 42.9368C64 42.4191 63.5804 41.9993 63.0625 41.9993ZM59.1436 41.9993H56.6241C56.4444 39.5289 55.5585 37.1612 54.0714 35.1764C54.695 34.4839 55.0364 33.5983 55.0364 32.6608V32.4072C57.4747 35.0267 58.9277 38.4012 59.1436 41.9993ZM47.7829 41.9993C47.3559 40.1413 45.69 38.7509 43.7043 38.7509C41.7185 38.7509 40.0525 40.1413 39.6255 41.9993H37.0726C37.457 39.2497 39.5087 37.0138 42.2279 36.4053C42.8152 37.6631 44.0586 38.5619 45.4943 38.6123C45.5399 38.6139 45.5854 38.6147 45.6307 38.6147C46.4942 38.6147 47.313 38.3257 47.9796 37.7894C49.2663 38.8566 50.1014 40.3539 50.3332 41.9992H47.7829V41.9993ZM45.8144 41.9993H41.5939C41.9543 41.1913 42.7637 40.6259 43.7041 40.6259C44.6445 40.6259 45.454 41.1913 45.8144 41.9993ZM36.2595 29.3751C36.3839 30.2501 36.81 31.0287 37.4291 31.6023C33.6348 33.7131 31.1026 37.6322 30.783 41.9993H28.267C28.5868 36.6763 31.6107 31.9247 36.2595 29.3751ZM24.9616 31.9086C24.2224 31.4543 23.4387 31.0739 22.6234 30.7742C23.8804 29.1436 25.8248 28.1671 27.9225 28.1671C29.5579 28.1671 31.1203 28.7668 32.3353 29.8347C31.6985 30.3868 31.1052 30.9824 30.5592 31.6166C29.822 31.0174 28.8954 30.6783 27.9226 30.6783C26.7905 30.6782 25.7369 31.1271 24.9616 31.9086ZM39.7231 32.5948C39.8085 32.6006 39.8944 32.6047 39.9811 32.6047C40.6545 32.6047 41.3007 32.4292 41.8674 32.0998V34.5647C38.2742 35.3457 35.5824 38.3433 35.1851 41.9994H32.6637C33.0226 37.8113 35.7615 34.1267 39.7231 32.5948ZM52.2241 41.9993C51.9791 39.7591 50.8634 37.7128 49.1077 36.2879C49.1685 36.1406 49.2204 35.9896 49.2619 35.8349C49.8445 36.2058 50.5357 36.4209 51.2762 36.4209C51.7014 36.4209 52.1155 36.3501 52.5064 36.2152C53.7896 37.8937 54.5665 39.9004 54.7453 41.9993H52.2241ZM39.9895 26.4848C41.2012 26.2243 42.4509 26.0922 43.7038 26.0922C46.5458 26.0922 49.3681 26.7848 51.8659 28.0952C52.665 28.5144 53.1613 29.3348 53.1613 30.2358V32.6608C53.1613 33.1639 52.9651 33.6378 52.6104 33.9933C52.2532 34.3496 51.7795 34.5458 51.2762 34.5458C50.2362 34.5458 49.39 33.7002 49.39 32.6608C49.39 32.1431 48.9704 31.7233 48.4525 31.7233C47.9346 31.7233 47.515 32.1431 47.515 32.6608V34.8533C47.515 35.3697 47.3103 35.8517 46.9386 36.2106C46.5673 36.5692 46.0778 36.7579 45.56 36.7383C44.5578 36.7032 43.7425 35.8272 43.7425 34.7856V28.8434C43.7425 28.3257 43.3229 27.9059 42.805 27.9059C42.2871 27.9059 41.8675 28.3257 41.8675 28.8434C41.8675 29.3476 41.6712 29.8216 41.3146 30.1781C40.9589 30.5338 40.4854 30.7297 39.9813 30.7297C38.9419 30.7297 38.0962 29.8834 38.0962 28.8434C38.0962 27.7126 38.8925 26.7207 39.9895 26.4848ZM11.7529 17.2921V5.51431C12.9796 5.88531 14.1884 5.89094 15.3801 5.70319V17.5664C14.1436 17.7947 12.9365 17.7857 11.7529 17.2921ZM18.8505 16.5336C18.3128 16.7231 17.7813 16.9104 17.2551 17.0781V5.26881C18.0011 5.04994 18.7406 4.78956 19.4739 4.53106C20.0115 4.34156 20.5431 4.15419 21.0691 3.98656V15.7959C20.3231 16.0148 19.5836 16.2751 18.8505 16.5336ZM22.9441 15.3614V3.49819C24.1807 3.26994 25.3878 3.27894 26.5713 3.77256V15.5502C25.3446 15.1793 24.1359 15.1737 22.9441 15.3614ZM17.974 29.9829C19.818 26.2228 23.6524 23.7821 27.9225 23.7821C31.0155 23.7821 33.9821 25.1031 36.0695 27.3628C35.2874 27.7462 34.5428 28.1833 33.8391 28.6692C32.2503 27.1498 30.1386 26.2921 27.9225 26.2921C24.9864 26.2921 22.2864 27.7857 20.7141 30.2331C19.8887 30.0666 19.0429 29.9798 18.1875 29.9798C18.1163 29.9797 18.0451 29.9817 17.974 29.9829ZM26.518 33.0303C26.9144 32.7248 27.4035 32.5533 27.9225 32.5533C28.4749 32.5533 29.0006 32.7523 29.4136 33.1023C29.019 33.6759 28.658 34.2723 28.3349 34.8901C27.7906 34.2069 27.1804 33.5853 26.518 33.0303ZM18.1879 36.2402C21.562 36.2402 24.3599 38.7492 24.8174 41.9993H22.2665C21.8396 40.1413 20.1736 38.7509 18.1879 38.7509C16.2021 38.7509 14.536 40.1413 14.1091 41.9993H11.5583C12.0158 38.7492 14.8136 36.2402 18.1879 36.2402ZM20.2981 41.9993H16.0776C16.438 41.1913 17.2475 40.6259 18.188 40.6259C19.1282 40.6259 19.9376 41.1913 20.2981 41.9993ZM46.7249 56.9159H18.6244C15.8864 56.9159 13.6055 54.9211 13.1587 52.3086H52.1906C51.7437 54.9211 49.4629 56.9159 46.7249 56.9159ZM54.6283 50.4334H9.37175C5.5555 50.4334 2.396 47.5672 1.93338 43.8742H62.0666C61.604 47.5672 58.4446 50.4334 54.6283 50.4334Z" fill="black"/>
</g>
<defs>
<clipPath id="clip0_4345_6632">
<rect width="64" height="64" fill="white"/>
</clipPath>
</defs>
</svg>
