<svg width="64" height="64" viewBox="0 0 64 64" fill="none" xmlns="http://www.w3.org/2000/svg">
<g clip-path="url(#clip0_4345_6518)">
<path d="M31.3184 33.3789C31.5249 33.5122 31.7607 33.5791 31.9966 33.5791C32.2329 33.5791 32.4687 33.5127 32.6753 33.3789C33.147 33.0742 44.2319 25.8257 44.2319 18.5728C44.2319 14.2412 40.8169 10.7168 36.6191 10.7168C34.9448 10.7168 33.3154 11.2949 31.9966 12.332C30.6782 11.2949 29.0488 10.7168 27.3745 10.7168C23.1768 10.7168 19.7617 14.2407 19.7617 18.5728C19.7617 25.8257 30.8462 33.0742 31.3184 33.3789ZM27.3745 13.2168C28.7847 13.2168 30.0981 13.8057 31.0728 14.8755C31.3096 15.1353 31.645 15.2832 31.9966 15.2832C32.3481 15.2832 32.6836 15.1353 32.9204 14.8755C33.895 13.8057 35.209 13.2168 36.6191 13.2168C39.4385 13.2168 41.7319 15.6196 41.7319 18.5728C41.7319 23.1201 35.2393 28.5703 31.9966 30.8237C28.7539 28.5708 22.2612 23.1201 22.2612 18.5728C22.2617 15.6196 24.5552 13.2168 27.3745 13.2168Z" fill="black"/>
<path d="M31.9966 5.66211C32.687 5.66211 33.2466 5.10254 33.2466 4.41211V1.25C33.2466 0.55957 32.687 0 31.9966 0C31.3062 0 30.7466 0.55957 30.7466 1.25V4.41211C30.7466 5.10254 31.3062 5.66211 31.9966 5.66211Z" fill="black"/>
<path d="M31.9966 35.7305C31.3062 35.7305 30.7466 36.29 30.7466 36.98V40.1475C30.7466 40.8374 31.3062 41.3975 31.9966 41.3975C32.687 41.3975 33.2466 40.8374 33.2466 40.1475V36.98C33.2466 36.29 32.687 35.7305 31.9966 35.7305Z" fill="black"/>
<path d="M47.0327 20.6973C47.0327 21.3872 47.5923 21.9473 48.2827 21.9473H51.4448C52.1353 21.9473 52.6948 21.3872 52.6948 20.6973C52.6948 20.0068 52.1353 19.4473 51.4448 19.4473H48.2827C47.5923 19.4473 47.0327 20.0068 47.0327 20.6973Z" fill="black"/>
<path d="M12.5483 21.9473H15.7158C16.4058 21.9473 16.9653 21.3872 16.9653 20.6973C16.9653 20.0068 16.4058 19.4473 15.7158 19.4473H12.5483C11.8579 19.4473 11.2983 20.0068 11.2983 20.6973C11.2983 21.3872 11.8579 21.9473 12.5483 21.9473Z" fill="black"/>
<path d="M44.3965 31.3307C43.9082 30.8429 43.1172 30.8429 42.6289 31.3307C42.1406 31.819 42.1406 32.6105 42.6289 33.0988L45.417 35.8868C45.6611 36.131 45.981 36.2531 46.3008 36.2531C46.6211 36.2531 46.9409 36.131 47.1846 35.8868C47.6729 35.399 47.6729 34.6075 47.1846 34.1193L44.3965 31.3307Z" fill="black"/>
<path d="M19.6004 10.0695C19.8445 10.3136 20.1644 10.4357 20.4842 10.4357C20.804 10.4357 21.1238 10.3136 21.368 10.0695C21.8558 9.58167 21.8558 8.79016 21.368 8.30188L18.6155 5.54944C18.1277 5.06165 17.3362 5.06165 16.848 5.54944C16.3602 6.03772 16.3597 6.82922 16.848 7.3175L19.6004 10.0695Z" fill="black"/>
<path d="M19.5967 31.3307L16.769 34.1588C16.2808 34.6471 16.2808 35.4381 16.769 35.9264C17.0132 36.1705 17.333 36.2926 17.6528 36.2926C17.9727 36.2926 18.2925 36.1705 18.5366 35.9264L21.3643 33.0988C21.8525 32.6105 21.8525 31.819 21.3643 31.3307C20.8765 30.8429 20.085 30.8429 19.5967 31.3307Z" fill="black"/>
<path d="M43.5093 10.4357C43.8291 10.4357 44.1489 10.3136 44.3931 10.0695L47.1455 7.3175C47.6333 6.82922 47.6333 6.03772 47.1455 5.54944C46.6572 5.06165 45.8657 5.06165 45.3774 5.54944L42.6255 8.30188C42.1372 8.79016 42.1372 9.58118 42.6255 10.0695C42.8691 10.3136 43.1895 10.4357 43.5093 10.4357Z" fill="black"/>
<path d="M59.7725 20.3145C57.4448 20.3145 55.5513 22.208 55.5513 24.5352V35.1562C55.5513 37.0771 55.1421 38.9629 54.374 40.6963C53.9565 39.9014 53.3247 39.2275 52.5337 38.7588C50.6196 37.624 48.1758 37.9214 46.5894 39.4814L41.6729 44.3169C38.6909 47.25 36.9805 51.3306 36.9805 55.5132V62.749C36.9805 63.439 37.54 63.9985 38.2305 63.9985C38.9209 63.9985 39.4805 63.439 39.4805 62.749V55.5132C39.4805 51.9966 40.9185 48.5654 43.4258 46.0991L48.3423 41.2632C49.1206 40.498 50.3198 40.3521 51.2588 40.9087C51.8687 41.2705 52.2861 41.8789 52.4048 42.5781C52.5229 43.2773 52.3286 43.9893 51.8716 44.5312L46.6636 50.7109C46.2187 51.2388 46.2861 52.0269 46.814 52.4722C47.3413 52.917 48.1304 52.8496 48.5752 52.3218L54.2148 45.6143C56.6885 42.6958 58.0508 38.9819 58.0508 35.1562V24.5352C58.0508 23.5859 58.8232 22.814 59.7725 22.814C60.7217 22.814 61.4937 23.5864 61.4937 24.5352V28.064C61.4937 28.7544 62.0532 29.314 62.7437 29.314C63.4341 29.314 63.9937 28.7544 63.9937 28.064V24.5352C63.9937 22.208 62.1001 20.3145 59.7725 20.3145Z" fill="black"/>
<path d="M62.7434 38.0645C62.053 38.0645 61.4934 38.624 61.4934 39.3145V43.4316C61.4934 45.6924 60.8928 47.9199 59.7551 49.876L52.6546 62.1235C52.3084 62.7207 52.512 63.4854 53.1092 63.8315C53.3064 63.9458 53.5222 64.0005 53.7346 64.0005C54.1658 64.0005 54.5852 63.7773 54.8172 63.3774L61.9173 51.1313C63.2752 48.7954 63.9934 46.1333 63.9934 43.4316V39.3145C63.9934 38.624 63.4339 38.0645 62.7434 38.0645Z" fill="black"/>
<path d="M17.4038 39.481C15.8179 37.9214 13.3735 37.624 11.46 38.7588C10.6685 39.2275 10.0371 39.9014 9.61963 40.6963C8.85156 38.9634 8.44238 37.0771 8.44238 35.1562V24.5352C8.44238 22.208 6.54883 20.3145 4.22119 20.3145C1.89355 20.3145 0 22.208 0 24.5352V43.4302C0 46.1318 0.717774 48.7939 2.0752 51.1284L9.17578 63.3755C9.40772 63.7754 9.82715 63.999 10.2583 63.999C10.4712 63.999 10.687 63.9443 10.8843 63.8301C11.4814 63.4839 11.6851 62.7192 11.3384 62.1221L4.23731 49.873C3.10059 47.9185 2.5 45.6904 2.5 43.4302V24.5356C2.5 23.5864 3.27197 22.814 4.22119 22.814C5.17041 22.814 5.94287 23.5864 5.94287 24.5356V35.1562C5.94287 38.9819 7.30518 42.6958 9.77881 45.6143L15.4185 52.3218C15.8633 52.8501 16.6519 52.917 17.1797 52.4722C17.7075 52.0273 17.7749 51.2388 17.3301 50.7109L12.1221 44.5317C11.665 43.9893 11.4707 43.2773 11.5889 42.5781C11.7075 41.8789 12.125 41.2705 12.7349 40.9092C13.6738 40.3521 14.873 40.498 15.6514 41.2637L20.5679 46.0996C23.0752 48.5654 24.5132 51.9966 24.5132 55.5132V62.749C24.5132 63.439 25.0728 63.999 25.7627 63.999C26.4531 63.999 27.0127 63.439 27.0127 62.749V55.5132C27.0127 51.3306 25.3027 47.25 22.3208 44.3169L17.4038 39.481Z" fill="black"/>
<path d="M62.7437 32.4395C62.0532 32.4395 61.4937 32.9995 61.4937 33.6895V33.731C61.4937 34.4214 62.0532 34.981 62.7437 34.981C63.4341 34.981 63.9937 34.4214 63.9937 33.731V33.6895C63.9937 32.9995 63.4341 32.4395 62.7437 32.4395Z" fill="black"/>
</g>
<defs>
<clipPath id="clip0_4345_6518">
<rect width="64" height="64" fill="white"/>
</clipPath>
</defs>
</svg>
