<svg width="64" height="64" viewBox="0 0 64 64" fill="none" xmlns="http://www.w3.org/2000/svg">
<g clip-path="url(#clip0_4345_6660)">
<path d="M51.4075 38.3353C51.0451 38.2091 50.6769 38.0865 50.3054 37.9659C50.4992 37.8519 50.6901 37.7356 50.8758 37.6157C54.4825 35.2879 56.4688 31.9096 56.4688 28.1031C56.4688 24.2966 54.4824 20.9184 50.8758 18.5905C49.5453 17.7317 48.0012 17.0219 46.2731 16.466C48.0139 14.8264 48.9375 12.9715 48.9375 11.0294C48.9375 7.90913 46.5541 5.01325 42.2261 2.87512C38.5274 1.048 33.8851 0 29.4896 0C25.1388 0 21.488 1.06675 18.9321 3.08475C16.4369 5.055 15.0626 7.8765 15.0626 11.0296C15.0626 13.7546 16.0899 16.2315 17.9792 18.1257C17.7184 18.2245 17.4595 18.3246 17.2046 18.4276C10.9667 20.9466 7.53125 24.383 7.53125 28.1034C7.53125 31.0156 9.63663 33.7538 13.5431 36.0141C11.1781 36.6469 9.07513 37.4671 7.2765 38.4676C2.58425 41.0776 0 44.8985 0 49.2266C0 53.5547 2.58425 57.3756 7.2765 59.9857C11.9978 62.6119 18.8109 64 26.9791 64C35.4149 64 44.3188 62.5851 51.4075 60.118C59.6455 57.2509 64 53.4847 64 49.2266C64 44.9685 59.6455 41.2024 51.4075 38.3353ZM26.9791 60.25C19.4472 60.25 13.2645 59.0254 9.09937 56.7085C6.659 55.3512 3.75 52.9512 3.75 49.2266C3.75 45.502 6.659 43.102 9.09937 41.7446C11.8041 40.2401 15.3604 39.1969 19.5836 38.6497C24.5115 40.2842 30.2699 41.2031 35.7656 41.2031C38.9831 41.2031 41.9281 40.8734 44.5255 40.234C53.7996 42.4534 60.25 46.1086 60.25 49.2266C60.25 54.0856 44.5851 60.25 26.9791 60.25ZM11.2812 28.1033C11.2812 25.5729 15.6276 22.6255 21.9815 20.7267C24.1143 21.6025 26.6516 22.0592 29.4896 22.0592C33.8103 22.0592 38.367 21.0449 42.034 19.2749C48.683 20.4764 52.7188 23.6804 52.7188 28.1034C52.7188 33.7832 46.0642 37.4533 35.7656 37.4533C22.8092 37.4531 11.2812 32.2246 11.2812 28.1033ZM18.8126 11.0296C18.8126 6.53937 22.9038 3.75 29.4896 3.75C33.2721 3.75 37.4125 4.67987 40.5651 6.23737C43.4595 7.66725 45.1875 9.45875 45.1875 11.0296C45.1875 12.6005 43.4595 14.3919 40.5651 15.8219C37.4124 17.3794 33.272 18.3092 29.4896 18.3092C22.9038 18.3092 18.8126 15.5199 18.8126 11.0296Z" fill="black"/>
</g>
<defs>
<clipPath id="clip0_4345_6660">
<rect width="64" height="64" fill="white"/>
</clipPath>
</defs>
</svg>
