<?xml version="1.0" encoding="UTF-8"?>
<svg id="Layer_1" xmlns="http://www.w3.org/2000/svg" version="1.1" viewBox="0 0 1184 864">
  <!-- Generator: Adobe Illustrator 30.0.0, SVG Export Plug-In . SVG Version: 2.1.1 Build 123)  -->
  <defs>
    <style>
      .st0 {
        fill: #5e93bc;
      }

      .st1 {
        fill: #213d57;
      }
    </style>
  </defs>
  <ellipse class="st0" cx="612.8" cy="236.7" rx="19.5" ry="16.7" transform="translate(372.8 848.3) rotate(-89.7)"/>
  <ellipse class="st1" cx="551.4" cy="239.4" rx="19.5" ry="16.8" transform="translate(299.6 785.3) rotate(-88.7)"/>
  <ellipse class="st1" cx="490.2" cy="259.3" rx="19.5" ry="16.8" transform="translate(224.9 746.3) rotate(-89.3)"/>
  <ellipse class="st0" cx="673" cy="259.5" rx="19.5" ry="16.7" transform="translate(394.8 925) rotate(-88.4)"/>
  <ellipse class="st0" cx="733.2" cy="300.4" rx="16.6" ry="19.4" transform="translate(-6.6 16.7) rotate(-1.3)"/>
  <ellipse class="st1" cx="428.7" cy="307.6" rx="16.8" ry="19.6" transform="translate(-2.7 3.8) rotate(-.5)"/>
  <ellipse class="st0" cx="793" cy="352.5" rx="16.7" ry="19.6" transform="translate(-3 6.9) rotate(-.5)"/>
  <path class="st1" d="M303.3,487.1c0,.2,0,.4.1.5,0,0,.2,0,.3,0,6-3.2,11.6-6.9,16.9-11.2.5-.4.8-.9.9-1.4l34.7-133.2c0-.4.4-.6.8-.6h44.9c.2,0,.4.2.5.4.9,3.5,16.6,61.8,47,174.8.4,1.5.9,2.9,1.6,4.3,0,.2.3.2.5.2.1,0,.2-.2.2-.3-.3-2.6-.4-4.4-.4-5.3,0-17,0-74.8,0-173.2,0-.4.4-.8.8-.8h96.3c.4,0,.7.3.7.8v31.5c0,.6-.5,1.1-1.1,1.1h-60.9c-.3,0-.5.2-.5.5v41.9c0,.3.3.6.6.6h56.6c.4,0,.7.3.7.7v32.2c0,.4-.3.6-.6.6h-56.7c-.3,0-.6.3-.6.6v72.4c0,.5-.4.8-.8.8h-71.1c-.4,0-.8-.3-.9-.7l-18.5-76.2c0-.2-.2-.3-.4-.2,0,0-.1,0-.2.1-11.2,15.5-24.9,28.8-41.2,39.8-.6.4-1.1,1-1.2,1.8l-9.1,34.9c0,.3-.4.6-.7.6h-34.3c-.4,0-.8-.4-.8-.8,0,0,0-.2,0-.2l4.6-15.2c0-.2,0-.5-.3-.6-.1,0-.2,0-.3,0-9.7,5.3-20.1,8.9-31.3,11.1-9.4,1.8-17.4,2.5-27.2,4.8-6.1,1.5-12.1,2.4-17.8,2.8-14.5,1-29.3.8-44.5-.6-5-.5-9.8-1.1-14.3-2-.3,0-.5-.3-.5-.6v-179.3c0-.3.2-.6.6-.6,5.1-.8,12.9-1.7,23.5-2.8,14.7-1.4,28.9-1.5,42.4,0,46,4.7,70.3,32.1,74.5,77,2.1,23.1-1.2,49-13.6,69.2ZM211,373.3v120.2c0,.2.2.5.4.5,7.2,1.2,14.4,1.5,21.6.8,14.3-1.4,26.1-6.5,34.9-17.9,13.1-17,14.9-42,11.4-62.6-3.5-20.7-15.5-37-36.8-41.9-9.2-2.1-19.5-2-30.9.3-.3,0-.5.3-.5.6ZM377.7,372.4c-.1.2-.2.6-.3,1-5.5,28.9-10.9,53.2-16.3,73.1,0,0-.1,1.1-.4,3.1,0,.1,0,.2.2.2,0,0,.1,0,.2,0,10.8-9.2,19.7-19.4,26.8-30.6.3-.5.4-1.2.3-1.8l-10.1-45c0-.1-.2-.2-.3-.2,0,0-.1,0-.1,0Z"/>
  <path class="st0" d="M910,426.8c-.1.4-.5.6-.9.4,0,0,0,0,0,0-13-5.9-30.4-5.8-42,3.7-17,13.9-18.3,41.8-11.4,60.4,8.4,22.5,33.3,27.8,53.8,18.2.4-.2.9,0,1,.4,0,0,0,0,0,.1l2.4,9.9c.1.5-.1,1-.6,1.3-22.6,9.7-50,5.8-64.3-14.8-5.4-7.8-8.6-17.8-9.5-30.1-1.5-20.3,3.2-40.3,19-54,14.7-12.7,37.4-13.6,54.9-6.7.5.2.7.7.6,1.2l-3,10.1Z"/>
  <path class="st0" d="M708.2,476.5v47.5c0,.4-.3.8-.8.8h-11.5c-.6,0-1.1-.5-1.1-1.1h0v-108.6c0-.3.2-.5.4-.5,9.4-2.1,19-2.8,28.9-2.3,15.9.9,28.7,8.4,31.2,24.8,2.2,14.6-3.9,28-18.2,33.3-.3,0-.4.4-.3.6,0,.1.1.2.3.3,9.9,4.6,11.9,13.2,14.5,24.3,2.8,12,4.1,19,7.5,28.2.1.3,0,.7-.4.8,0,0-.2,0-.2,0h-11.6c-.8,0-1.5-.5-1.7-1.3-2.6-8.4-5.2-18.4-7.7-30.2-2-9.3-7.5-17-17.6-17.4-5.8-.2-9.5-.2-11.2,0-.3,0-.6.3-.6.7ZM708.3,425.1v37.5c0,1,.8,1.9,1.8,1.9h12.4c11.1,0,20.1-8.7,20.2-19.5h0v-2.2c0-10.8-9-19.5-20.1-19.6h-12.4c-1,0-1.9.8-1.9,1.9h0Z"/>
  <path class="st0" d="M564.9,415.8c0-.5.3-.9.8-1,18.6-4,42.2-4.8,58.8,5.2,11.5,6.9,18.5,19.9,20.5,33.3,3.5,23.4-1.1,51.9-23.5,64.9-14.9,8.6-38.4,8.9-55.5,6-.6,0-1-.6-1-1.2v-107.2ZM578.1,425.1v87.3c0,.6.5,1.2,1.1,1.2,6.8.4,13.8.5,20.3-.3,18.2-2.4,28.8-15.7,32-33,4.2-22.9-2.5-51.2-29.6-55.8-7.4-1.3-15.3-1.1-23.6.4-.1,0-.2.1-.2.3Z"/>
  <path class="st0" d="M786,424.8c-.2,0-.3.1-.3.3v34.2c0,.5.4.9.8,1,3,.4,6,.5,9,.3,8.9-.6,13.9-.3,27.6-.2.5,0,.9.4.9.9h0v10.2c0,.4-.3.8-.8.8h-36.4c-.6,0-1,.5-1,1h0v38.8c0,.4.3.7.7.7h41.6c.5,0,.9.4.9.9v10.1c0,.5-.4.9-.9.9h-54.7c-.5,0-.9-.4-.9-.9h0v-110.4c0-.4.3-.7.7-.7h52.6c.4,0,.7.3.7.7h0v10.9c0,.3-.2.5-.5.5h-39.9Z"/>
  <path class="st0" d="M953.9,412.7c23.3,0,35,0,35,0,.4,0,.7.3.7.7v10.7c0,.3-.2.6-.5.6h-28.2c-.2,0-.3.1-.3.3h0v98.9c0,.3-.2.6-.6.7-.6,0-2.6.1-6,.1-3.4,0-5.4,0-6-.1-.3,0-.6-.3-.6-.7v-98.9c0-.2-.2-.3-.4-.3h-28.2c-.3,0-.6-.3-.6-.6v-10.7c0-.4.4-.7.8-.7,0,0,11.7,0,35,0Z"/>
  <rect class="st0" x="661.4" y="412.7" width="13" height="112" rx="1.1" ry="1.1"/>
  <path class="st0" d="M1003.2,507.8c-2-1.2-3.7-1-5.3.4-.9.9-1,2.2-.2,3.1,0,0,0,0,0,0,1.8,1.7,4.9,2.5,6.2,4.2,2.7,3.7,1.7,8.5-3,9.6-2.2.5-4.3.3-6.5-.6-.5-.2-.8-.8-.5-1.4.2-.4.6-.6,1-.6l5.2.2c.4,0,.9-.1,1.2-.4,4.4-3.8-2-6.2-4.3-7.7-.2-.1-.4-.3-.6-.4-1.8-1.6-2.4-3.5-1.9-5.6,1-4,5.3-4.9,8.7-3.7.7.2,1.1.9,1.1,1.6v.4c0,.5-.4.8-.9.8-.1,0-.3,0-.4-.1Z"/>
  <path class="st0" d="M1017.8,520.6c.9-3,2.2-7.4,3.9-13.2.8-2.8,1.9-2.9,4.2-2.1.3.1.6.4.6.8l.9,18.2c0,.5-.4.9-.9.9,0,0,0,0,0,0h-.8c-.5,0-.9-.5-.9-.9l-.8-15.1s0,0,0,0c0,0,0,0,0,0-1.6,5.2-3.3,10.3-5.1,15.4-.1.4-.3.6-.5.7-.8.4-1.7,0-2.1-.8,0,0,0,0,0-.1-1.4-4.1-2.8-8.9-4.1-14.4,0-.2-.2-.3-.3-.3-.2,0-.3.2-.3.3l-.7,14.4c0,.6-.6,1.1-1.2,1.1,0,0,0,0,0,0h-.4c-.5,0-.9-.4-.8-.9,0,0,0,0,0,0l.9-18.7c0-.4.4-.8.8-.7,0,0,0,0,0,0h2.1c.4.1.7.4.8.8l4.4,14.9c0,0,.1.1.2.1,0,0,0,0,.1-.1Z"/>
  <rect class="st1" x="284.6" y="570.8" width="4.6" height="36.9" rx="1" ry="1"/>
  <path class="st1" d="M554.7,605.4c0-.2-.2-.4-.4-.4-.1,0-.2,0-.3.2-4.3,5.7-11.3,3.2-13.7-2.5-2.2-5.1-1.9-12.6,1.4-16.9,3.2-4.1,8.8-5.2,12-.5.1.2.3.2.5.1.1,0,.2-.2.2-.3v-13.2c0-.6.5-1.1,1.1-1.1h2.4c.6,0,1.1.5,1.1,1.1h0v35c0,.4-.3.7-.6.8-2.2.6-3.4-.2-3.6-2.2ZM549.2,586.1c-3.1,0-5.6,4-5.7,9.1h0c0,5.1,2.4,9.2,5.4,9.2,3.1,0,5.6-4,5.7-9.1h0c0-5.1-2.4-9.2-5.4-9.2h0Z"/>
  <path class="st1" d="M749.3,584.7c0,.2.1.3.3.3,0,0,.1,0,.2,0,3.2-3.2,6.7-3.5,10.5-.7.3.2.5.5.7.8,1.1,2,1.6,3.7,1.7,5.1.3,5.1.4,10.5.4,16,0,.9-.8,1.6-1.7,1.6h-1.6c-.9,0-1.6-.7-1.6-1.5,0,0,0,0,0,0,0-5.8,0-10.5,0-14.1-.1-7.6-8.6-6.9-9,0,0,1.4-.1,6.2-.1,14.3,0,.9-.7,1.6-1.6,1.6h-1.5c-.8,0-1.4-.6-1.4-1.4h0v-34.7c0-.4.3-.7.7-.7h3.3c.4,0,.7.3.7.7v13Z"/>
  <path class="st1" d="M854.8,585.2c1.4-1,2.7-2.3,4.3-2.6,11.1-1.4,12.2,12.7,9.3,19.7-2.3,5.4-9.8,9.5-13.9,3.2-.1-.2-.3-.2-.5-.1,0,0,0,0-.1.1l-1,1.9c-.4.8-1.4,1.1-2.2.7-.5-.2-.8-.7-.9-1.2,0,0,0-1.1,0-2.9,0-1.4,0-12.2.2-32.3,0-.4.3-.7.7-.7h3c.4,0,.7.3.7.7v13.3c0,.2.1.3.3.3,0,0,.1,0,.2,0ZM859.8,586c-3.1,0-5.7,4.1-5.8,9.2s2.4,9.3,5.6,9.4c3.1,0,5.7-4.1,5.8-9.2s-2.4-9.3-5.6-9.4Z"/>
  <rect class="st1" x="874.2" y="571" width="4.5" height="36.8" rx="1.3" ry="1.3" transform="translate(-1 1.5) rotate(0)"/>
  <path class="st1" d="M174.2,574c0-.8.7-1.5,1.5-1.5h8.2c8.2,0,14.8,6.7,14.8,14.9v5.6c0,8.2-6.6,14.9-14.8,14.9h-8.2c-.8,0-1.5-.7-1.5-1.5h0v-32.3ZM178.6,577.4v25.6c0,.6.4,1,1,1h3.1c6.3,0,11.3-5.2,11.4-11.7v-4.2c0-6.5-5.1-11.7-11.3-11.8h-3.1c-.6,0-1,.5-1,1h0Z"/>
  <ellipse class="st1" cx="205.4" cy="576" rx="2.7" ry="3" transform="translate(-26.9 10.3) rotate(-2.7)"/>
  <ellipse class="st1" cx="474.7" cy="576" rx="2.7" ry="3" transform="translate(-13.9 11.8) rotate(-1.4)"/>
  <ellipse class="st1" cx="806.3" cy="575.9" rx="3" ry="2.7" transform="translate(87.1 1257.5) rotate(-79)"/>
  <path class="st1" d="M270.9,582v-4.6c0-.6.5-1.2,1.1-1.2h2.6c.5-.2.8.2.9.6,0,0,0,0,0,0v5.4c0,.3.2.5.5.5,0,0,0,0,0,0l3.6-.2c.6,0,1,.4,1.1.9,0,0,0,0,0,0v1.7c0,.7-.5,1.2-1.2,1.2h-3.5c-.4,0-.7.3-.7.7v15c0,.9.7,1.7,1.7,1.8,1.6.1,2.5.2,2.5.2.6.3.8,1,.8,2.1,0,.9-.7,1.7-1.6,1.9-6.4,1.2-7.8-3.2-7.8-9,0-5,0-9,0-11.9,0-.4-.3-.7-.7-.8h-1.7c-.4-.1-.7-.4-.8-.7-.2-.9-.2-1.8,0-2.5.1-.4.5-.7,1-.7h1.5c.4,0,.7-.3.7-.7Z"/>
  <path class="st1" d="M677.6,582.8c.4,0,.7-.3.7-.7v-4.5c0-.6.5-1.2,1.1-1.2h2.6c.5-.2.8.2.9.6,0,0,0,0,0,0v5.3c0,.3.2.5.5.5,0,0,0,0,0,0l3.5-.2c.6,0,1,.4,1.1.9,0,0,0,0,0,0v1.6c0,.6-.5,1.2-1.2,1.2h-3.5c-.4,0-.7.3-.7.7h0v14.9c0,.9.8,1.7,1.7,1.8,1.6.1,2.5.2,2.5.2.6.3.8,1,.8,2.1,0,.9-.7,1.7-1.6,1.9-6.4,1.2-7.8-3.2-7.8-9,0-5,0-9,0-11.8,0-.4-.3-.7-.7-.8h-1.7c-.4,0-.7-.3-.8-.7-.2-.9-.2-1.8,0-2.5.1-.4.5-.6,1-.6h1.5Z"/>
  <path class="st1" d="M458.3,582.8c.4,0,.7-.3.7-.7v-4.6c0-.6.5-1.2,1.1-1.2h2.6c.5-.2.8.2.9.6,0,0,0,0,0,0v5.4c0,.3.2.5.5.5,0,0,0,0,0,0l3.6-.2c.6,0,1,.4,1.1.9,0,0,0,0,0,0v1.7c0,.7-.5,1.2-1.2,1.2,0,0,0,0,0,0h-3.5c-.4,0-.7.3-.7.7v15c0,.9.7,1.7,1.7,1.8,1.6.1,2.5.2,2.5.2.6.3.8,1,.8,2.1,0,.9-.7,1.7-1.6,1.9-6.4,1.2-7.8-3.2-7.8-9v-11.9c0-.4-.3-.7-.7-.8h-1.7c-.4,0-.7-.4-.8-.7-.2-.9-.2-1.8,0-2.5.1-.4.5-.7,1-.7h1.5Z"/>
  <path class="st1" d="M814.7,582.8c.4,0,.7-.3.7-.7h0s0-4.5,0-4.5c0-.6.5-1.2,1.1-1.2h2.6c.5-.1.8.2.8.6,0,0,0,0,0,0v5.3c0,.3.2.5.5.5,0,0,0,0,0,0l3.5-.2c.6,0,1,.4,1,.9,0,0,0,0,0,0v1.6c0,.6-.5,1.2-1.2,1.2h-3.4c-.4,0-.7.3-.7.6,0,0,0,0,0,0v14.9c0,.9.7,1.7,1.6,1.8,1.6.1,2.4.2,2.5.3.6.3.8,1,.7,2.1,0,.9-.7,1.7-1.6,1.8-6.4,1.2-7.7-3.2-7.7-8.9,0-5,0-8.9,0-11.8,0-.4-.3-.7-.7-.7h-1.7c-.4-.1-.7-.4-.8-.7-.2-.9-.2-1.7,0-2.4.2-.4.5-.6,1-.6h1.4Z"/>
  <path class="st1" d="M217.5,585.5c0,.2.2.4.4.4.1,0,.2,0,.3-.1,1.4-1.3,2.9-3.8,5.4-3.7.6,0,1.1.5,1.1,1.1v3c0,.5-.4,1-1,1,0,0,0,0-.1,0-3.9-.4-5.3,4.1-5.2,7.5,0,2.3,0,6.3,0,11.9,0,.7-.5,1.2-1.2,1.2h-2c-.7,0-1.2-.5-1.2-1.2,0,0,0,0,0,0v-22.7c0-.7.5-1.2,1.2-1.2,0,0,0,0,0,0h1.3c.7,0,1.2.5,1.2,1.2h0v1.7Z"/>
  <path class="st1" d="M264.5,582.9c.5.1.8.6.7,1.1h0s-.6,2.5-.6,2.5c-.1.4-.6.7-1,.6,0,0,0,0-.1,0-13.5-5.6-15.3,21.8,0,16.8.6-.2,1.1.1,1.3.7,0,0,0,0,0,0l.3,1.2c.2.7-.3,1.5-1,1.7-7,2.3-13.6,0-15.4-7.4-2.7-10.9,3.6-20.2,15.8-17.2Z"/>
  <path class="st1" d="M640,585.5c0,.2.2.4.4.4,0,0,.2,0,.3-.1,1.4-1.3,2.9-3.8,5.4-3.7.6,0,1.1.5,1.1,1.1v3c0,.5-.5,1-1,1,0,0,0,0-.1,0-3.9-.4-5.3,4.1-5.2,7.5,0,2.3,0,6.3-.1,11.9,0,.6-.5,1.2-1.2,1.2h-2c-.7,0-1.2-.5-1.2-1.2,0,0,0,0,0,0v-22.7c0-.7.6-1.2,1.2-1.2,0,0,0,0,0,0h1.3c.7,0,1.2.5,1.2,1.2s0,0,0,0v1.7Z"/>
  <path class="st1" d="M794.1,585.7c1.4-1.3,2.9-3.8,5.4-3.7.6,0,1.1.5,1.1,1.1v3c0,.5-.4,1-1,1,0,0,0,0-.1,0-3.9-.4-5.3,4.1-5.2,7.5,0,2.3,0,6.3,0,12,0,.7-.5,1.2-1.2,1.2h-2c-.7,0-1.2-.5-1.2-1.2v-22.8c0-.7.5-1.2,1.2-1.2h1.3c.7,0,1.2.5,1.2,1.2v1.7c0,.2.2.4.4.4.1,0,.2,0,.3-.1Z"/>
  <path class="st1" d="M231.6,596.5c-.4,0-.7.3-.7.7,0,0,0,0,0,0,.3,5.6,4.1,8.1,9.4,6.8,1.4-.3,2.1-.5,2.3-.5.6-.1,1.2.2,1.4.8,0,0,0,.1,0,.2v1.2c.2.7-.2,1.3-.9,1.5-6.2,2.2-12.9,1.4-15.4-5.3-2.5-6.4-1.3-18.3,7.4-19.5,8-1.1,10.6,7.2,10.2,13.4,0,.4-.4.8-.8.8h-13ZM231.4,592.6l9.1-.2c.1,0,.2-.1.2-.2v-.6c0-3.2-2.3-5.7-4.9-5.6h0c-2.6,0-4.7,2.7-4.6,5.8,0,0,0,0,0,0v.6c0,.1.1.2.3.2Z"/>
  <path class="st1" d="M340.1,582.9c.5.1.8.6.7,1.1,0,0,0,0,0,0l-.7,2.5c-.1.4-.6.7-1,.6,0,0,0,0-.1,0-13.5-5.6-15.2,21.7,0,16.7.5-.2,1.1.1,1.3.7,0,0,0,0,0,0l.3,1.2c.2.7-.3,1.5-1,1.7-7,2.3-13.5,0-15.3-7.4-2.6-10.9,3.6-20.2,15.7-17.1Z"/>
  <path class="st1" d="M353.5,582.1c5.8,0,10.5,5.9,10.6,13.2,0,7.3-4.7,13.3-10.5,13.3-5.8,0-10.5-5.9-10.6-13.2s4.7-13.3,10.5-13.3ZM353.5,585.9c-3.2,0-5.8,4.2-5.8,9.3,0,5.1,2.6,9.3,5.8,9.3h0c3.2,0,5.8-4.2,5.8-9.3s-2.6-9.3-5.8-9.3h0Z"/>
  <path class="st1" d="M396.1,584.9c0,.2.3.4.6.3,0,0,0,0,0,0,1.1-.5,2.2-2.2,3.9-2.6,6.1-1.5,9.2,2.7,9.6,8.2.2,2.9.3,8.1.2,15.6,0,.7-.6,1.3-1.3,1.3h-2c-.7,0-1.3-.6-1.3-1.3,0-7.1,0-12.1-.1-15-.3-7.1-8.5-5.8-8.8.6-.2,4.7-.3,9.5-.2,14.4,0,.8-.6,1.4-1.4,1.4,0,0,0,0,0,0h-1.5c-.8,0-1.5-.7-1.5-1.5,0-6.2,0-13.2,0-21.2,0-.9,0-1.4,0-1.5.4-1,1.5-1.5,2.5-1.1.6.2,1,.7,1.2,1.4l.2,1.1Z"/>
  <path class="st1" d="M419.1,597.2c.3,5.6,4.1,8.2,9.5,6.8,1.4-.3,2.1-.5,2.3-.5.6-.1,1.2.2,1.4.8,0,0,0,.1,0,.2v1.2c.2.7-.2,1.3-.9,1.5-6.2,2.2-12.9,1.4-15.5-5.3-2.5-6.5-1.3-18.4,7.5-19.6,8-1.1,10.6,7.2,10.3,13.4,0,.4-.4.8-.8.8h-13c-.4,0-.7.3-.7.7,0,0,0,0,0,0ZM419.9,592.7l9-.2c.1,0,.2-.1.2-.3,0,0,0,0,0,0v-.7c-.1-3.2-2.3-5.7-4.9-5.6-2.6,0-4.7,2.7-4.6,5.9,0,0,0,0,0,0v.7c0,.1.1.3.3.3,0,0,0,0,0,0Z"/>
  <path class="st1" d="M453.1,582.8c.5.1.8.6.6,1.1l-.7,2.5c-.1.4-.6.7-1,.6,0,0,0,0,0,0-13.5-5.7-15.4,21.7,0,16.8.6-.2,1.1.1,1.3.7,0,0,0,0,0,0l.3,1.2c.2.7-.3,1.5-1,1.7-7.1,2.2-13.6,0-15.3-7.5-2.6-10.9,3.7-20.2,15.9-17.1Z"/>
  <path class="st1" d="M486.8,584.9c0,.2.3.4.6.3,0,0,0,0,0,0,1.1-.5,2.2-2.2,3.9-2.6,6.1-1.5,9.2,2.7,9.7,8.2.2,3,.3,8.2.2,15.6,0,.7-.6,1.3-1.3,1.3h-2c-.7,0-1.3-.6-1.4-1.3,0-7.2,0-12.2-.2-15.1-.3-7.1-8.6-5.8-8.8.6-.2,4.7-.2,9.5-.2,14.5,0,.8-.6,1.4-1.4,1.4,0,0,0,0,0,0h-1.5c-.9,0-1.6-.7-1.6-1.5h0c0-6.2-.1-13.3-.1-21.3,0-.9,0-1.4,0-1.5.4-1,1.5-1.5,2.5-1.1.6.2,1,.7,1.2,1.3l.2,1.1Z"/>
  <path class="st1" d="M520.9,605.6c0-.3-.3-.4-.5-.4,0,0-.2,0-.3.1-4.6,4.5-11.1,2.7-13.5-3-2.8-6.5-1.6-18,6.2-20,2.8-.7,5.3.2,7.3,2.8.2.2.5.3.7,0,0,0,.1-.2.2-.3l.5-1.9c0-.3.4-.6.7-.6h2.1c.4,0,.7.3.7.7.4,9.1.3,17.6-.2,25.5-.6,9.4-9.1,11.9-16.8,8.7-.7-.3-1-1-.9-1.7l.5-1.7c.1-.5.6-.7,1.1-.6,0,0,.1,0,.2,0,4.2,2.2,9.2,2.6,11.1-2.7.7-1.9,1-3.6.8-5ZM515.2,586.1c-3,0-5.5,4.1-5.5,9.1,0,5,2.5,9.1,5.5,9.1h0c3,0,5.5-4.1,5.5-9.1,0-5-2.5-9.1-5.5-9.1h0Z"/>
  <path class="st1" d="M573.8,582c5.9,0,10.5,6,10.4,13.3h0c0,7.3-4.9,13.1-10.8,13.1-5.9,0-10.5-6-10.4-13.3h0c0-7.3,4.9-13.1,10.8-13.1ZM573.6,585.9c-3.2,0-5.8,4.1-5.8,9.3s2.5,9.3,5.7,9.3h0c3.2,0,5.8-4.1,5.8-9.3h0c0-5.1-2.5-9.3-5.7-9.3h0Z"/>
  <path class="st1" d="M593.1,585.2c1.1-.5,2.2-2.2,3.9-2.6,6.1-1.5,9.2,2.7,9.7,8.2.2,3,.3,8.2.2,15.7,0,.7-.6,1.3-1.3,1.3h-2c-.7,0-1.3-.6-1.3-1.4h0c0-7.2,0-12.2-.2-15.1-.3-7.1-8.6-5.8-8.9.6-.2,4.7-.2,9.6-.2,14.5,0,.8-.6,1.4-1.4,1.4,0,0,0,0,0,0h-1.5c-.9,0-1.5-.7-1.6-1.5,0-6.2-.1-13.3,0-21.3,0-.9,0-1.4,0-1.5.4-1,1.5-1.5,2.5-1.1.6.2,1,.7,1.2,1.4l.2,1.1c0,.2.3.4.6.3,0,0,0,0,0,0Z"/>
  <path class="st1" d="M621.9,582.1c5.8.1,10.4,6.2,10.2,13.5h0c-.2,7.3-5,13.1-10.9,13h0c-5.8-.1-10.4-6.2-10.2-13.5h0c.2-7.3,5-13.1,10.9-13h0ZM621.6,586c-3.2,0-5.8,4.1-5.8,9.3,0,5.1,2.5,9.3,5.7,9.3h0c3.2,0,5.8-4.1,5.8-9.3,0-5.1-2.5-9.3-5.7-9.3h0Z"/>
  <path class="st1" d="M662.5,584.8l-.4,1.6c-.1.5-.6.8-1.1.7,0,0,0,0-.1,0-3.2-1.4-7.8-1.4-6.6,3.1.2.8.9,1.5,2.2,2.1,4.2,2.2,7.7,4.5,7,9.3-1,6.5-7.8,7.9-13.1,5.7-.8-.3-1.2-1.2-1-2l.3-1.2c.2-.6.8-1,1.4-.9,0,0,.1,0,.2,0,1.3.6,2.6.9,4,1,1.5,0,2.8-.5,3.4-1.5.7-1.3.5-2.7-.7-4.2-.2-.2-.4-.5-.7-.6-2.2-1.2-5.2-2.5-6.5-4.8-2.1-3.6-.8-8.2,2.9-10,2.6-1.3,5.4-1.3,8.2.1.6.3.9,1,.7,1.6Z"/>
  <path class="st1" d="M700.6,582.1c5.8,0,10.5,6,10.4,13.3s-4.8,13.2-10.6,13.2h0c-5.8,0-10.5-6-10.4-13.3s4.8-13.2,10.6-13.2h0ZM700.5,585.9c-3.2,0-5.8,4.1-5.9,9.3,0,5.1,2.6,9.3,5.8,9.3s5.8-4.1,5.9-9.3h0c0-5.1-2.6-9.3-5.8-9.3Z"/>
  <path class="st1" d="M739.9,582.9c.5.1.8.6.7,1.1,0,0,0,0,0,0l-.7,2.5c-.1.4-.6.7-1,.6,0,0,0,0-.1,0-13.5-5.6-15.3,21.6,0,16.7.5-.2,1.1.1,1.3.7,0,0,0,0,0,0l.3,1.2c.2.7-.3,1.5-1,1.7-7,2.2-13.5,0-15.3-7.4-2.6-10.9,3.6-20.2,15.8-17.1Z"/>
  <path class="st1" d="M779,606c-11.6,9.8-19.2-13.3-1.3-14.2,1.1,0,1.9-.9,1.8-2,0-.3-.1-.7-.3-.9l-.8-1.3c-1-1.5-2.8-2.2-4.5-1.7l-3.4,1c-.6.2-1.3-.2-1.4-.8,0,0,0,0,0,0l-.2-.7c-.2-.8.2-1.7.9-2,6.2-2.8,13.6-1.3,14.1,6.7.2,3.3.3,9,.2,16.9,0,.4-.3.8-.7.9-1.9.5-3,0-3.5-1.7,0-.3-.4-.4-.7-.4,0,0-.1,0-.2.1ZM779.5,595.6c0-.2-.2-.4-.4-.4,0,0,0,0,0,0-3.7.3-8.1,1.3-7.6,6.1.4,4.3,4.8,4,6.8,1.5,1.5-1.9,1.4-4.8,1.3-7.2Z"/>
  <path class="st1" d="M840.1,606.2c0-.3-.4-.4-.7-.4,0,0-.1,0-.2.1-11.5,9.8-19.2-13.2-1.3-14.1,1.1,0,1.9-.9,1.8-2,0-.3-.1-.7-.3-.9l-.9-1.3c-1-1.5-2.8-2.1-4.5-1.6l-3.4,1c-.6.2-1.2-.2-1.4-.8l-.2-.7c-.2-.8.1-1.7.9-2,6.2-2.9,13.5-1.4,14.1,6.6.2,3.3.3,8.9.2,16.8,0,.4-.3.8-.7.9-1.9.5-3,0-3.5-1.6ZM838.6,595.6c-1.7-1.1-4.3,0-5.8,2.3-1.5,2.3-1.3,5.1.4,6.2h0c1.7,1.1,4.3,0,5.8-2.3,1.5-2.3,1.3-5.1-.4-6.2h0Z"/>
  <path class="st1" d="M888.4,596.4c-.4,0-.7.3-.7.7,0,0,0,0,0,0,.3,5.6,4,8.2,9.4,6.9,1.3-.3,2.1-.5,2.3-.5.6-.1,1.2.3,1.3.9,0,0,0,.1,0,.2v1.1c.1.7-.3,1.3-.9,1.5-6.2,2.2-12.9,1.3-15.4-5.4-2.4-6.5-1.1-18.4,7.6-19.5,8-1,10.5,7.2,10.1,13.5,0,.4-.4.7-.8.7h-13ZM889.2,592.6h7.5c.6-.2,1-.6,1-1.2h0v-.2c0-3-2.2-5.5-4.9-5.4-2.6,0-4.7,2.5-4.7,5.6,0,0,0,0,0,0v.2c0,.6.5,1,1,1h0Z"/>
  <path class="st1" d="M930.8,582.8c.5.1.8.6.7,1.1,0,0,0,0,0,0l-.6,2.5c-.1.4-.6.7-1,.6,0,0,0,0-.1,0-13.5-5.5-15.1,21.8.2,16.7.5-.2,1.1.1,1.3.7,0,0,0,0,0,0l.3,1.2c.2.7-.2,1.5-1,1.7-7,2.3-13.5,0-15.4-7.3-2.7-10.9,3.4-20.2,15.6-17.2Z"/>
  <path class="st1" d="M947,606.3c0-.3-.4-.4-.7-.4,0,0-.1,0-.2.1-11.5,9.9-19.4-13.1-1.4-14.2,1.1,0,1.9-1,1.8-2,0-.3-.1-.7-.3-.9l-.9-1.3c-1-1.5-2.8-2.1-4.5-1.6l-3.4,1c-.6.2-1.3-.2-1.5-.8l-.2-.7c-.2-.8.1-1.7.9-2,6.2-2.9,13.6-1.5,14.2,6.6.3,3.3.4,9,.4,16.9,0,.4-.3.8-.7.9-1.9.5-3,0-3.5-1.6ZM946.3,595.5c0-.2-.2-.4-.4-.4,0,0,0,0,0,0-3.7.5-7.9,1.6-7.2,6.3.6,4.2,4.8,3.8,6.7,1.2,1.4-1.9,1.2-4.7,1-7.1Z"/>
  <path class="st1" d="M992.5,585l-.4,1.6c-.1.5-.6.8-1.1.6,0,0,0,0-.1,0-3.2-1.4-7.8-1.5-6.6,3.1.2.8.9,1.5,2.2,2.2,4.2,2.2,7.6,4.6,6.8,9.4-1,6.5-7.9,7.8-13.1,5.5-.8-.3-1.2-1.2-1-2l.3-1.2c.2-.6.8-1,1.4-.8,0,0,.1,0,.2,0,1.3.6,2.6,1,4,1.1,1.5,0,2.8-.5,3.4-1.5.7-1.3.5-2.7-.6-4.2-.2-.3-.4-.5-.7-.6-2.2-1.3-5.1-2.6-6.5-4.9-2.1-3.6-.7-8.2,3-10,2.7-1.3,5.4-1.2,8.2.3.6.3.9,1,.7,1.6Z"/>
  <path class="st1" d="M1001.5,596.4c-.4,0-.7.3-.7.7,0,0,0,0,0,0,.3,5.6,4.1,8.2,9.5,6.9,1.4-.3,2.1-.5,2.3-.5.6-.1,1.2.2,1.4.8,0,0,0,.1,0,.2v1.2c.2.7-.2,1.3-.9,1.5-6.2,2.2-12.9,1.4-15.5-5.3-2.5-6.5-1.2-18.4,7.5-19.6,8-1.1,10.6,7.2,10.3,13.4,0,.4-.4.8-.8.8h-13ZM1001.9,592.6h8.1c.4-.1.8-.5.8-.9h0v-.2c0-3.1-2.2-5.6-4.8-5.6h-.1c-2.6,0-4.7,2.6-4.7,5.7h0v.2c0,.4.4.8.8.8h0Z"/>
  <path class="st1" d="M1031.5,584.8l-.4,1.6c-.1.5-.6.8-1.1.7,0,0-.1,0-.2,0-3.2-1.4-7.8-1.4-6.6,3.2.2.8.9,1.5,2.2,2.1,4.2,2.1,7.7,4.5,7,9.3-.9,6.5-7.8,7.9-13.1,5.7-.8-.3-1.2-1.2-1-2l.3-1.2c.2-.6.8-1,1.4-.9,0,0,.1,0,.2,0,1.3.6,2.6.9,4,1,1.5,0,2.8-.5,3.4-1.6.7-1.3.5-2.7-.7-4.2-.2-.2-.4-.5-.7-.6-2.2-1.2-5.2-2.5-6.5-4.8-2.1-3.6-.8-8.2,2.9-10,2.6-1.3,5.4-1.3,8.2.2.6.3.9,1,.7,1.6Z"/>
  <path class="st1" d="M302.6,600.8c0,.1.2.2.3.2,0,0,.2-.1.2-.2l4.4-16.9c.2-.6.7-1.1,1.4-1.1h2.4c.5-.1,1,.3,1,.8,0,.1,0,.2,0,.3-2.3,7.5-4.3,13.8-6,19.1-2.1,6.5-4.4,12.2-10.2,16-.5.3-1.1.2-1.4-.3,0,0,0-.2-.1-.3l-.7-2.3c-.2-.7.1-1.4.8-1.6,2.5-1.1,6.3-5.7,5.2-9-1.6-5.3-4-12.4-7.1-21.5-.2-.6.1-1.2.7-1.4,0,0,.2,0,.3,0h2.2c.8-.2,1.5.3,1.7,1.1l5.1,17.1Z"/>
  <path class="st1" d="M372.3,584.8c0,.2.3.4.6.3,0,0,0,0,0,0,1.1-.5,2.2-2.2,3.9-2.6,6.1-1.5,9.2,2.8,9.7,8.2.2,3,.3,8.2.1,15.7,0,.7-.6,1.3-1.3,1.3h-2c-.7,0-1.3-.6-1.3-1.4,0-7.2,0-12.2-.1-15.1-.3-7.1-8.6-5.9-8.9.6-.2,4.7-.3,9.6-.2,14.5,0,.8-.6,1.4-1.4,1.4,0,0,0,0,0,0h-1.5c-.9,0-1.5-.7-1.6-1.5,0-6.2,0-13.3,0-21.3,0-.9,0-1.4,0-1.5.4-1,1.5-1.5,2.5-1.1.6.2,1,.8,1.2,1.4l.2,1.1Z"/>
  <rect class="st1" x="804.2" y="582.7" width="4.4" height="25" rx="1.1" ry="1.1"/>
  <rect class="st1" x="203.5" y="582.8" width="4.4" height="25" rx="1.1" ry="1.1" transform="translate(-2.1 .7) rotate(-.2)"/>
  <rect class="st1" x="472.5" y="582.9" width="4.6" height="24.9" rx="1.2" ry="1.2" transform="translate(-2.1 1.7) rotate(-.2)"/>
  <path class="st1" d="M970.9,605.7c0-.2-.3-.4-.6-.3,0,0,0,0,0,0-1.1.5-2.2,2.2-3.9,2.6-6.1,1.5-9.2-2.8-9.7-8.2-.2-3-.3-8.2-.2-15.7,0-.7.6-1.3,1.3-1.3h2c.7,0,1.3.6,1.3,1.4,0,7.2,0,12.2.1,15.1.3,7.1,8.6,5.8,8.8-.6.2-4.7.3-9.6.2-14.5,0-.8.6-1.4,1.4-1.4h1.5c.8,0,1.5.7,1.5,1.5,0,6.2,0,13.3,0,21.3,0,.9,0,1.4,0,1.5-.4,1-1.5,1.5-2.5,1.1-.6-.2-1-.7-1.2-1.4l-.2-1.1Z"/>
</svg>