<svg width="64" height="64" viewBox="0 0 64 64" fill="none" xmlns="http://www.w3.org/2000/svg">
<g clip-path="url(#clip0_3473_5908)">
<path d="M42.6316 26.7264C43.698 25.6709 44.3599 24.2076 44.3599 22.5922C44.3599 19.3837 41.749 16.7734 38.5398 16.7734C36.0669 16.7734 33.8752 18.3411 33.0568 20.6382C32.7138 20.575 32.3609 20.5402 31.9998 20.5402C31.6387 20.5402 31.2859 20.575 30.9428 20.6382C30.1244 18.3409 27.9325 16.7734 25.4598 16.7734C22.2506 16.7734 19.6397 19.3837 19.6397 22.5922C19.6397 24.2076 20.3017 25.6709 21.3681 26.7264C18.8101 28.1835 17.1633 30.9428 17.1633 33.9437C17.1633 34.4615 17.5831 34.8812 18.1008 34.8812C18.6186 34.8812 19.0383 34.4615 19.0383 33.9437C19.0383 31.2933 20.6977 28.8865 23.171 27.9426C23.874 28.2445 24.6476 28.4123 25.4599 28.4123C25.8176 28.4123 26.1719 28.3778 26.5186 28.3138C26.815 29.1426 27.2938 29.8851 27.907 30.4926C25.3258 31.9542 23.7036 34.693 23.7036 37.7108C23.7036 38.2287 24.1234 38.6483 24.6411 38.6483C25.1589 38.6483 25.5786 38.2287 25.5786 37.7108C25.5786 35.1242 27.1181 32.8015 29.5007 31.7938C29.5644 31.7668 29.6233 31.7331 29.6775 31.6948C30.3894 32.0059 31.1745 32.1797 31.9998 32.1797C32.8123 32.1797 33.5861 32.0118 34.2891 31.7098C36.7612 32.6537 38.421 35.0629 38.421 37.7108C38.421 38.2287 38.8407 38.6483 39.3585 38.6483C39.8762 38.6483 40.296 38.2287 40.296 37.7108C40.296 34.7127 38.6488 31.9512 36.0916 30.4935C36.7053 29.8859 37.1844 29.143 37.4809 28.3138C37.8278 28.3778 38.1819 28.4123 38.5397 28.4123C39.352 28.4123 40.1256 28.2445 40.8285 27.9426C43.3017 28.8865 44.9611 31.293 44.9611 33.9437C44.9611 34.4615 45.3809 34.8812 45.8986 34.8812C46.4164 34.8812 46.8361 34.4615 46.8361 33.9437C46.8364 30.9426 45.1896 28.1835 42.6316 26.7264ZM26.1803 26.36C26.1803 26.3969 26.1824 26.4331 26.183 26.4697C25.9469 26.5137 25.705 26.5372 25.4599 26.5372C23.2846 26.5372 21.5149 24.7676 21.5149 22.5922C21.5149 20.4177 23.2846 18.6484 25.4599 18.6484C27.1381 18.6484 28.6248 19.7133 29.178 21.2726C27.3918 22.2673 26.1803 24.1745 26.1803 26.36ZM28.0553 26.36C28.0553 24.185 29.8248 22.4153 31.9999 22.4153C34.1751 22.4153 35.9446 24.1849 35.9446 26.36C35.9446 28.5351 34.1751 30.3046 31.9999 30.3046C29.8248 30.3046 28.0553 28.535 28.0553 26.36ZM37.8167 26.4697C37.8173 26.4331 37.8194 26.3967 37.8194 26.36C37.8194 24.1745 36.6079 22.2675 34.8217 21.2727C35.3749 19.7135 36.8616 18.6486 38.5398 18.6486C40.7151 18.6486 42.4849 20.4177 42.4849 22.5923C42.4849 24.7676 40.7151 26.5374 38.5398 26.5374C38.2947 26.5372 38.0528 26.5137 37.8167 26.4697Z" fill="black"/>
<path d="M56.2789 40.5174V23.4764C58.6158 23.0354 60.3893 20.9799 60.3893 18.5167C60.3893 15.733 58.1247 13.4683 55.3409 13.4683C53.811 13.4683 52.4389 14.1533 51.5124 15.2316L36.7639 6.71591C36.9473 6.19354 37.0483 5.63253 37.0483 5.04815C37.0483 2.26464 34.7837 0 32 0C29.2164 0 26.9516 2.26464 26.9516 5.04828C26.9516 5.63266 27.0525 6.19354 27.236 6.71604L12.4875 15.2316C11.561 14.1533 10.1889 13.4683 8.659 13.4683C5.87523 13.4683 3.6106 15.733 3.6106 18.5167C3.6106 20.9799 5.38411 23.0353 7.72099 23.4764V40.5174C5.38411 40.9584 3.6106 43.0139 3.6106 45.477C3.6106 48.2608 5.87523 50.5254 8.659 50.5254C10.1865 50.5254 11.5566 49.8425 12.4831 48.7673L27.2359 57.2845C27.0525 57.8067 26.9516 58.3676 26.9516 58.9517C26.9516 61.7355 29.2162 64.0001 32 64.0001C34.7838 64.0001 37.0484 61.7355 37.0484 58.9517C37.0484 58.3676 36.9475 57.8067 36.7642 57.2845L51.5169 48.7673C52.4434 49.8427 53.8135 50.5254 55.341 50.5254C58.1248 50.5254 60.3894 48.2608 60.3894 45.477C60.3893 43.0138 58.6157 40.9584 56.2789 40.5174ZM55.3409 15.3433C57.0907 15.3433 58.5143 16.767 58.5143 18.5167C58.5143 20.2665 57.0907 21.6901 55.3409 21.6901C53.5911 21.6901 52.1675 20.2665 52.1675 18.5167C52.1675 16.767 53.5911 15.3433 55.3409 15.3433ZM32 1.87501C33.7498 1.87501 35.1734 3.29852 35.1734 5.04828C35.1734 6.79641 33.7524 8.21892 32.0049 8.22155C32.0033 8.22155 32.0016 8.2213 32 8.2213C31.9984 8.2213 31.9968 8.22155 31.9951 8.22155C30.2476 8.21892 28.8266 6.79641 28.8266 5.04828C28.8266 3.29852 30.2501 1.87501 32 1.87501ZM5.48561 18.5167C5.48561 16.767 6.90924 15.3433 8.659 15.3433C10.4088 15.3433 11.8324 16.767 11.8324 18.5167C11.8324 20.2665 10.4088 21.6901 8.659 21.6901C6.90924 21.6901 5.48561 20.2665 5.48561 18.5167ZM8.659 48.6503C6.90924 48.6503 5.48561 47.2267 5.48561 45.4769C5.48561 43.7271 6.90924 42.3035 8.659 42.3035C10.4088 42.3035 11.8324 43.7271 11.8324 45.4769C11.8324 47.2267 10.4088 48.6503 8.659 48.6503ZM32 62.125C30.2503 62.125 28.8266 60.7014 28.8266 58.9516C28.8266 57.2018 30.2503 55.7782 32 55.7782C33.7498 55.7782 35.1734 57.2018 35.1734 58.9516C35.1734 60.7014 33.7498 62.125 32 62.125ZM35.8244 55.6618C35.0923 54.8118 34.0829 54.2079 32.9374 53.9919V50.3802C32.9374 49.8623 32.5176 49.4427 31.9999 49.4427C31.4821 49.4427 31.0624 49.8623 31.0624 50.3802V53.9919C29.917 54.2081 28.9076 54.8118 28.1754 55.6618L13.4229 47.1448C13.6064 46.6223 13.7073 46.0614 13.7073 45.477C13.7073 44.8921 13.6062 44.3306 13.4224 43.8078L16.5512 42.0009C16.9995 41.7419 17.153 41.1685 16.8942 40.7201C16.6353 40.2717 16.0619 40.1184 15.6134 40.3771L12.4819 42.1856C11.7498 41.3364 10.7408 40.7331 9.59588 40.5172V23.4765C10.7411 23.2606 11.7504 22.657 12.4825 21.8074L15.6183 23.6183C15.7659 23.7035 15.9272 23.744 16.0863 23.744C16.4102 23.744 16.7253 23.5759 16.8989 23.2753C17.1579 22.8269 17.0043 22.2534 16.5559 21.9945L13.4225 20.185C13.606 19.6624 13.707 19.1012 13.707 18.5167C13.707 17.9347 13.6069 17.376 13.4248 16.8553L28.1754 8.33842C28.9075 9.18818 29.9167 9.79193 31.062 10.0079V13.6201C31.062 14.138 31.4818 14.5576 31.9995 14.5576C32.5173 14.5576 32.937 14.138 32.937 13.6201V10.0079C34.0823 9.79193 35.0915 9.18818 35.8237 8.33842L50.5742 16.8553C50.3922 17.376 50.292 17.9347 50.292 18.5167C50.292 19.1012 50.393 19.6624 50.5765 20.185L47.4431 21.9945C46.9947 22.2534 46.8411 22.8269 47.1001 23.2753C47.2737 23.5759 47.5888 23.744 47.9127 23.744C48.0717 23.744 48.2331 23.7035 48.3807 23.6183L51.5165 21.8074C52.2488 22.657 53.258 23.2606 54.4031 23.4765V40.5172C53.2583 40.7331 52.2494 41.3364 51.5171 42.1856L48.3856 40.3771C47.9372 40.1186 47.3638 40.2717 47.1049 40.7201C46.8458 41.1685 46.9995 41.7419 47.4478 42.0009L50.5766 43.8078C50.3929 44.3306 50.2917 44.8921 50.2917 45.477C50.2917 46.0614 50.3926 46.6224 50.5761 47.1448L35.8244 55.6618ZM55.3409 48.6503C53.5911 48.6503 52.1675 47.2267 52.1675 45.4769C52.1675 43.7271 53.5911 42.3035 55.3409 42.3035C57.0907 42.3035 58.5143 43.7271 58.5143 45.4769C58.5143 47.2267 57.0907 48.6503 55.3409 48.6503Z" fill="black"/>
<path d="M39.8523 41.6855H37.0623C36.5445 41.6855 36.1248 42.1052 36.1248 42.623C36.1248 43.1409 36.5445 43.5605 37.0623 43.5605H39.8523C40.37 43.5605 40.7898 43.1409 40.7898 42.623C40.7898 42.1052 40.37 41.6855 39.8523 41.6855Z" fill="black"/>
<path d="M39.8523 45.3574H24.1477C23.63 45.3574 23.2102 45.777 23.2102 46.2949C23.2102 46.8128 23.63 47.2324 24.1477 47.2324H39.8525C40.3702 47.2324 40.79 46.8128 40.79 46.2949C40.79 45.777 40.3701 45.3574 39.8523 45.3574Z" fill="black"/>
<path d="M24.1477 43.5605H24.1607C24.6785 43.5605 25.0982 43.1409 25.0982 42.623C25.0982 42.1052 24.6785 41.6855 24.1607 41.6855H24.1477C23.63 41.6855 23.2102 42.1052 23.2102 42.623C23.2102 43.1409 23.63 43.5605 24.1477 43.5605Z" fill="black"/>
<path d="M27.4078 43.5605C27.9255 43.5605 28.3453 43.1409 28.3453 42.623C28.3453 42.1052 27.9255 41.6855 27.4078 41.6855H27.3948C26.877 41.6855 26.4573 42.1052 26.4573 42.623C26.4573 43.1409 26.877 43.5605 27.3948 43.5605H27.4078Z" fill="black"/>
<path d="M30.6551 43.5605C31.1728 43.5605 31.5926 43.1409 31.5926 42.623C31.5926 42.1052 31.1728 41.6855 30.6551 41.6855H30.6421C30.1243 41.6855 29.7046 42.1052 29.7046 42.623C29.7046 43.1409 30.1243 43.5605 30.6421 43.5605H30.6551Z" fill="black"/>
</g>
<defs>
<clipPath id="clip0_3473_5908">
<rect width="64" height="64" fill="white"/>
</clipPath>
</defs>
</svg>
