<svg width="64" height="64" viewBox="0 0 64 64" fill="none" xmlns="http://www.w3.org/2000/svg">
<g clip-path="url(#clip0_4345_6599)">
<path d="M63.5174 7.09685C63.2126 6.85997 62.8157 6.7771 62.442 6.87222L56.495 8.38434C55.54 8.62697 54.5564 8.75009 53.5714 8.75009H44.8441C42.013 8.75009 39.6481 10.7815 39.2211 13.5804C38.9818 15.1492 37.6562 16.2877 36.0695 16.2877H35.7501V13.6766C37.906 12.3931 39.3541 10.04 39.3541 7.35397C39.3542 3.29899 36.0552 0 32.0001 0C27.945 0 24.6461 3.29899 24.6461 7.35397C24.6461 10.04 26.0943 12.3931 28.2501 13.6766V16.2877H27.9308C26.344 16.2877 25.0184 15.1492 24.7791 13.5804C24.3521 10.7815 21.9873 8.75009 19.1562 8.75009H10.4288C9.44383 8.75009 8.46021 8.62709 7.50534 8.38434L1.55824 6.87235C1.18474 6.77735 0.787616 6.8601 0.482867 7.09697C0.178368 7.33372 0.000244141 7.69797 0.000244141 8.08372C0.000244141 10.7223 1.01824 13.1269 2.68048 14.9284C2.71698 17.9621 4.15435 20.663 6.37472 22.4163L7.55059 23.9878C10.2317 27.5713 14.5046 29.7108 18.9803 29.7108C22.4135 29.7108 25.6671 28.5039 28.2501 26.2923V30.7501H27.129C22.6719 30.7501 19.0457 34.3764 19.0457 38.8335C19.0457 40.1955 19.3913 41.5425 20.0449 42.729C20.2727 43.1425 20.7 43.3761 21.1409 43.3761C21.3449 43.3761 21.5518 43.3261 21.7429 43.2207C22.3477 42.8876 22.5678 42.1273 22.2347 41.5227C21.784 40.7046 21.5457 39.7747 21.5457 38.8335C21.5457 35.7547 24.0503 33.2501 27.129 33.2501H28.2501V44.4167H25.3126C22.0158 44.4167 19.3335 47.0989 19.3335 50.3959C19.3335 53.6928 22.0158 56.375 25.3126 56.375H28.7881C29.2215 58.7223 29.9146 61.018 30.867 63.2421C31.0639 63.702 31.5159 64 32.016 64H32.0182C32.5192 63.9991 32.9714 63.6992 33.1669 63.2379L33.1915 63.1798C34.1237 60.9748 34.802 58.6998 35.2256 56.375H36.646C38.059 56.375 39.2085 57.5245 39.2085 58.9375C39.2085 60.3505 38.059 61.5 36.646 61.5H36.5611C35.8709 61.5 35.3111 62.0598 35.3111 62.75C35.3111 63.4403 35.8709 64 36.5611 64H36.646C39.4375 64 41.7085 61.729 41.7085 58.9375C41.7085 56.146 39.4375 53.875 36.646 53.875H35.5811C35.6931 52.7782 35.7501 51.672 35.7501 50.5584V46.9167H36.5835C41.0406 46.9167 44.6667 43.2906 44.6667 38.8335C44.6667 34.3764 41.0406 30.7501 36.5835 30.7501H35.7501V26.2923C38.3332 28.504 41.5867 29.7108 45.0199 29.7108C49.4955 29.7108 53.7682 27.5714 56.4496 23.9878L57.6255 22.4163C59.846 20.663 61.2833 17.9619 61.3198 14.9283C62.9821 13.1269 64 10.7223 64 8.08372C64 7.69797 63.8219 7.33372 63.5174 7.09685ZM27.2605 23.8074C25.0416 26.0021 22.101 27.2108 18.9803 27.2108C16.1999 27.2108 13.5148 26.2095 11.4137 24.4527C11.7274 24.4834 12.0453 24.5 12.3671 24.5H14.4603C15.1506 24.5 15.7103 23.9403 15.7103 23.25C15.7103 22.5598 15.1506 22 14.4603 22H12.3671C9.20346 22 6.51234 19.9448 5.55372 17.1001C6.92184 17.7933 8.46659 18.1868 10.1023 18.1871L12.6877 18.1874C13.3778 18.1874 13.9377 17.6278 13.9378 16.9376C13.9379 16.2473 13.3783 15.6876 12.6879 15.6874L10.1026 15.6871C6.47847 15.6866 3.43848 13.1369 2.68148 9.73734L6.88959 10.8072C8.04559 11.1012 9.23633 11.2501 10.4288 11.2501H19.1562C20.743 11.2501 22.0685 12.3886 22.3078 13.9573C22.7348 16.7563 25.0996 18.7877 27.9308 18.7877H28.2501V22.8287L27.2605 23.8074ZM25.3126 53.8749C23.3943 53.8749 21.8335 52.3142 21.8335 50.3958C21.8335 48.4773 23.3943 46.9166 25.3126 46.9166H28.2501V50.4839C28.2501 51.6229 28.31 52.7538 28.427 53.8749H25.3126ZM33.2501 50.5583C33.2501 53.4688 32.8342 56.3252 32.0112 59.0849C31.1734 56.3023 30.7501 53.4215 30.7501 50.4839V46.9166H33.2501V50.5583ZM33.2501 44.4166H30.7501V14.5996C31.1566 14.6696 31.5739 14.7081 32.0001 14.7081C32.4264 14.7081 32.8436 14.6696 33.2501 14.5996V44.4166ZM36.5835 33.25C39.6621 33.25 42.1667 35.7546 42.1667 38.8333C42.1667 41.912 39.6621 44.4166 36.5835 44.4166H35.7501V33.25H36.5835ZM32.0001 12.208C29.3235 12.208 27.1461 10.0305 27.1461 7.35397C27.1461 4.67748 29.3236 2.49999 32.0001 2.49999C34.6766 2.49999 36.8541 4.67748 36.8541 7.35397C36.8541 10.0305 34.6767 12.208 32.0001 12.208ZM53.8977 15.6871L51.3125 15.6874C50.6222 15.6876 50.0625 16.2473 50.0627 16.9376C50.0628 17.6279 50.6225 18.1876 51.3128 18.1874L53.8982 18.1871C55.5339 18.1868 57.0786 17.7934 58.4468 17.1001C57.4881 19.9448 54.7969 22 51.6334 22H49.5401C48.8498 22 48.2901 22.5598 48.2901 23.25C48.2901 23.9403 48.8498 24.5 49.5401 24.5H51.6333C51.955 24.5 52.2728 24.4834 52.5865 24.4527C50.4853 26.2095 47.8003 27.2108 45.0201 27.2108C41.8993 27.2108 38.9587 26.0021 36.7398 23.8075L35.7501 22.8287V18.7877H36.0695C38.9006 18.7877 41.2655 16.7563 41.6925 13.9573C41.9317 12.3886 43.2572 11.2501 44.8441 11.2501H53.5714C54.7639 11.2501 55.9546 11.1012 57.1108 10.8072L61.3188 9.73734C60.5618 13.1368 57.5218 15.6866 53.8977 15.6871Z" fill="black"/>
<path d="M27.8836 61.8662C27.6512 61.6336 27.3287 61.5 27 61.5C26.6712 61.5 26.3487 61.6336 26.1162 61.8662C25.8837 62.0989 25.75 62.4212 25.75 62.75C25.75 63.0787 25.8836 63.4012 26.1162 63.6336C26.3487 63.8661 26.6712 64 27 64C27.3287 64 27.6512 63.8662 27.8836 63.6336C28.1161 63.4012 28.25 63.0787 28.25 62.75C28.25 62.4212 28.1162 62.0987 27.8836 61.8662Z" fill="black"/>
</g>
<defs>
<clipPath id="clip0_4345_6599">
<rect width="64" height="64" fill="white"/>
</clipPath>
</defs>
</svg>
