<svg width="64" height="64" viewBox="0 0 64 64" fill="none" xmlns="http://www.w3.org/2000/svg">
<g clip-path="url(#clip0_3473_5937)">
<path d="M60.2854 44.3125C59.427 44.3125 61.0022 44.0927 37.9891 49.8266C37.8031 49.1879 37.4593 48.5849 36.9579 48.0834L30.0468 41.1723C29.1898 40.3154 28.0502 39.8432 26.8383 39.8432H13.0522C12.7924 37.4668 10.7724 35.6113 8.32809 35.6113H4.75291C2.13183 35.6113 0 37.7432 0 40.3642V57.06C0 59.6815 2.13183 61.8144 4.75291 61.8144H8.32809C10.9477 61.8144 13.081 59.6815 13.081 57.06V55.3949C15.3642 55.8803 18.0419 55.9218 21.6562 57.6899C28.8056 61.2216 29.0736 61.2377 30.3353 62.0512C33.4896 64.0839 37.5418 64.1078 40.7235 62.1044L58.6238 53.0287C59.0872 52.7934 59.2727 52.227 59.0379 51.7636C58.8025 51.3002 58.2361 51.1152 57.7727 51.35C39.054 60.8422 39.826 60.4447 39.7528 60.4916C37.1854 62.1254 33.9047 62.1122 31.3549 60.4691C29.9442 59.56 29.5038 59.4711 22.4833 55.9994C18.5361 54.0678 15.5815 54.016 13.081 53.4848V41.7256H26.8383C27.5473 41.7256 28.2147 42.0014 28.7167 42.5034L35.6268 49.4145C36.9881 50.7744 36.0726 53.0585 34.1874 53.0585C33.6254 53.0585 33.0961 52.8388 32.6971 52.4413L26.4721 46.2138C26.1044 45.8462 25.5082 45.8462 25.1405 46.2138C24.7729 46.5815 24.7729 47.1777 25.1405 47.5449L31.3671 53.7724C33.6117 56.0097 37.4749 54.87 38.0794 51.7446L60.0852 46.2055C61.1804 46.0869 62.1179 46.9497 62.1179 48.0327C62.1179 49.2236 61.1428 49.6347 61.1301 49.6474C60.6668 49.8823 60.4817 50.4487 60.7166 50.912C60.9514 51.3759 61.5178 51.561 61.9817 51.3261L62.1975 51.2162C63.1394 50.7412 64.0002 49.458 64.0002 48.0327C63.9997 45.9814 62.3333 44.3125 60.2854 44.3125ZM11.1987 57.0605C11.1987 58.644 9.91012 59.9325 8.32809 59.9325H4.75291C3.17089 59.9325 1.88232 58.644 1.88232 57.0605V40.3642C1.88232 38.7822 3.17089 37.4932 4.75291 37.4932H8.32809C9.7319 37.4932 10.9052 38.5083 11.1513 39.8437C11.2226 40.229 11.1987 57.0468 11.1987 57.0605Z" fill="black"/>
<path d="M7.80199 51.9321C7.32494 51.727 6.77123 51.9477 6.56567 52.4248C6.3601 52.9023 6.5808 53.456 7.05834 53.6611C8.36986 54.2251 7.95531 56.1821 6.54028 56.1821C5.65014 56.1821 5.02026 55.3134 5.28784 54.4712C5.44507 53.9756 5.17114 53.4463 4.67603 53.289C4.17993 53.1318 3.65162 53.4062 3.4939 53.9013C2.83912 55.9638 4.38843 58.0644 6.54028 58.0644C8.30248 58.0644 9.73606 56.6308 9.73606 54.8686C9.73606 53.5903 8.97679 52.4375 7.80199 51.9321Z" fill="black"/>
<path d="M10.8679 24.6054C11.3777 24.5024 11.7068 24.0053 11.6033 23.496C11.1506 21.2636 12.8659 19.1958 15.1159 19.1953C15.636 19.1953 16.0569 18.7739 16.0569 18.2544V15.8789C16.0569 14.9267 16.8318 14.1523 17.7834 14.1523H20.1657C20.6857 14.1523 21.1066 13.7309 21.1066 13.2114C21.1066 13.2051 21.1066 13.1987 21.1066 13.1919C21.114 11.2212 22.7194 9.6206 24.6916 9.6206C26.6652 9.6206 28.2717 11.2241 28.276 13.1972V13.2114C28.276 13.7309 28.6974 14.1523 29.217 14.1523H31.5988C32.5514 14.1523 33.3263 14.9267 33.3263 15.8789V17.3935C31.7238 17.6709 30.2531 18.6753 29.4333 20.2231C29.4167 20.2543 29.4025 20.2861 29.3898 20.3178C29.0148 21.0585 28.8019 21.895 28.8019 22.7797C28.8019 23.3935 28.9045 23.9833 29.092 24.5346C29.0998 24.5663 29.109 24.5976 29.1203 24.6288C29.7917 26.498 31.4396 27.8363 33.3263 28.1654V29.6943C33.3263 30.6469 32.5514 31.4218 31.5988 31.4218H30.0783C29.6344 28.85 27.3879 26.8876 24.6916 26.8876C21.9973 26.8876 19.7517 28.8471 19.3054 31.4218H17.7834C16.8313 31.4218 16.0569 30.6469 16.0569 29.6943V27.3056C16.0569 26.7861 15.6355 26.3647 15.1159 26.3647C14.467 26.3647 13.8318 26.1894 13.2785 25.8583C12.8323 25.5917 12.2546 25.7363 11.9875 26.1825C11.7204 26.6283 11.8655 27.2065 12.3118 27.4736C12.886 27.8173 13.5178 28.0512 14.1745 28.1654V29.6947C14.1745 31.685 15.7937 33.3041 17.7834 33.3041H20.1657C20.6853 33.3041 21.1066 32.8744 21.1066 32.3549C21.1066 30.3783 22.7145 28.7699 24.6916 28.7699C26.6677 28.7699 28.2756 30.3783 28.2756 32.3632C28.2756 32.8827 28.6969 33.3041 29.2165 33.3041H31.5988C32.6549 33.3041 33.6066 32.848 34.2672 32.123C34.9279 32.848 35.879 33.3041 36.9347 33.3041H39.317C39.837 33.3041 40.2584 32.8744 40.2584 32.3549C40.2584 30.3783 41.8663 28.7699 43.8434 28.7699C45.8199 28.7699 47.4283 30.3783 47.4283 32.3632C47.4283 32.8827 47.8492 33.3041 48.3692 33.3041H50.7515C52.7413 33.3041 54.3599 31.685 54.3599 29.6947V27.3061C54.3599 26.7865 53.9376 26.3652 53.418 26.3652C51.441 26.3652 49.8331 24.7568 49.8331 22.7797C49.8331 20.8032 51.441 19.1948 53.418 19.1948H53.419C53.939 19.1948 54.3599 18.7734 54.3599 18.2539V15.8789C54.3599 13.8891 52.7413 12.2705 50.7515 12.2705H48.3692C47.8497 12.2705 47.4288 12.6909 47.4283 13.2104C47.4259 15.1841 45.8175 16.79 43.8434 16.79C41.8693 16.79 40.2609 15.1841 40.2584 13.2099C40.2574 12.6909 39.8365 12.2705 39.317 12.2705H36.9352C35.8795 12.2705 34.9279 12.7261 34.2677 13.4511C33.6071 12.7261 32.6554 12.2705 31.5993 12.2705H30.0783C29.6335 9.6997 27.3874 7.73828 24.6916 7.73828C21.9953 7.73828 19.7492 9.6997 19.3044 12.2705H17.7834C15.7937 12.2705 14.175 13.8891 14.175 15.8789V17.394C11.1628 17.9194 9.14477 20.8437 9.75854 23.8701C9.86108 24.3744 10.3528 24.7094 10.8679 24.6054ZM34.2677 19.1953C34.7877 19.1953 35.2086 18.7739 35.2086 18.2544V15.8789C35.2086 14.9267 35.983 14.1523 36.9352 14.1523H38.4586C38.9088 16.7168 41.1534 18.6723 43.8439 18.6723C46.5343 18.6723 48.7784 16.7168 49.2286 14.1523H50.752C51.7042 14.1523 52.4786 14.9267 52.4786 15.8789V17.3935C49.9102 17.8408 47.9513 20.0859 47.9513 22.7797C47.9513 25.4736 49.9097 27.7187 52.4786 28.1659V29.6943C52.4786 30.6469 51.7042 31.4218 50.752 31.4218H49.231C48.7872 28.85 46.5406 26.8876 43.8439 26.8876C41.149 26.8876 38.9034 28.8471 38.4572 31.4218H36.9352C35.983 31.4218 35.2086 30.6469 35.2086 29.6943C35.2086 28.245 35.2086 28.8266 35.2086 27.3056C35.2086 26.8105 34.82 26.3666 34.2526 26.3642C33.5075 26.3613 32.7477 26.1235 32.0983 25.6298C29.381 23.5561 30.8439 19.1953 34.2677 19.1953Z" fill="black"/>
<path d="M31.0645 37.5234V39.9287C31.0645 40.4482 31.4858 40.8696 32.0054 40.8696C32.5254 40.8696 32.9468 40.4482 32.9468 39.9287V37.5234C32.9468 37.0034 32.5254 36.582 32.0054 36.582C31.4858 36.582 31.0645 37.0034 31.0645 37.5234Z" fill="black"/>
<path d="M32.0054 4.78758C32.5254 4.78758 32.9468 4.36668 32.9468 3.84667V1.4414C32.9468 0.921385 32.5254 0.5 32.0054 0.5C31.4858 0.5 31.0645 0.921385 31.0645 1.4414V3.84667C31.0645 4.36668 31.4858 4.78758 32.0054 4.78758Z" fill="black"/>
<path d="M4.20166 18.3921H6.60692C7.12694 18.3921 7.54832 17.9707 7.54832 17.4507C7.54832 16.9312 7.12694 16.5098 6.60692 16.5098H4.20166C3.68164 16.5098 3.26025 16.9312 3.26025 17.4507C3.26025 17.9707 3.68164 18.3921 4.20166 18.3921Z" fill="black"/>
<path d="M11.7005 5.18133C13.4549 6.56902 13.5662 6.94793 14.1477 6.94793C15.0232 6.94793 15.4246 5.8493 14.7532 5.28582L12.9104 3.73993C12.512 3.40546 11.9187 3.45771 11.5843 3.85565C11.2503 4.2536 11.3025 4.84735 11.7005 5.18133Z" fill="black"/>
<path d="M6.78442 32.7558C7.09888 32.7558 7.09106 32.6821 9.36742 31.8002C9.85033 31.6078 10.0862 31.0605 9.89379 30.5776C9.70189 30.0947 9.15453 29.8593 8.67211 30.0512L6.43677 30.9399C5.47877 31.3207 5.75025 32.7558 6.78442 32.7558Z" fill="black"/>
<path d="M59.0478 19.6401H61.4531C61.9731 19.6401 62.3945 19.2187 62.3945 18.6992C62.3945 18.1792 61.9731 17.7578 61.4531 17.7578H59.0478C58.5278 17.7578 58.1069 18.1792 58.1069 18.6992C58.1069 19.2187 58.5278 19.6401 59.0478 19.6401Z" fill="black"/>
<path d="M54.666 36.5722L56.5087 38.1186C56.9086 38.454 57.5019 38.3989 57.8344 38.0024C58.1684 37.6044 58.1166 37.0107 57.7187 36.6767L55.8754 35.1303C55.4775 34.7963 54.8837 34.8481 54.5497 35.2465C54.2158 35.6445 54.2675 36.2382 54.666 36.5722Z" fill="black"/>
<path d="M49.1026 6.13654L50.9976 4.6551C51.4073 4.33478 51.48 3.74348 51.1597 3.3343C50.8394 2.92463 50.2486 2.85237 49.8389 3.17219L47.9434 4.65363C47.5343 4.97345 47.4615 5.56476 47.7818 5.97443C48.1026 6.38507 48.6939 6.45587 49.1026 6.13654Z" fill="black"/>
</g>
<defs>
<clipPath id="clip0_3473_5937">
<rect width="64" height="64" fill="white"/>
</clipPath>
</defs>
</svg>
