<svg width="64" height="64" viewBox="0 0 64 64" fill="none" xmlns="http://www.w3.org/2000/svg">
<g clip-path="url(#clip0_3473_5905)">
<path d="M63.4508 35.7991C62.7187 35.0669 61.5314 35.0669 60.7992 35.7991L59.0771 37.5213C58.6584 37.0196 58.1871 36.6418 57.6296 36.3216C58.1047 34.7766 58.3388 33.213 58.3388 31.5851C58.3389 23.2936 52.3351 16.5 44.1696 16.5C40.1513 16.5 36.6158 18.2379 33.8751 21.5413V12.75H39.5001C40.5356 12.75 41.3751 11.9105 41.3751 10.875C41.3751 9.8395 40.5356 9 39.5001 9H33.8751V3.375C33.8751 2.3395 33.0356 1.5 32.0001 1.5C30.9646 1.5 30.1251 2.3395 30.1251 3.375V9H24.5001C23.4646 9 22.6251 9.8395 22.6251 10.875C22.6251 11.9105 23.4646 12.75 24.5001 12.75H30.1251V21.5413C27.3843 18.2379 23.8488 16.5 19.8306 16.5C11.6702 16.5 5.66106 23.289 5.66106 31.5853C5.66106 33.2078 5.90131 34.768 6.38894 36.3111C5.82894 36.6301 5.34931 37.0103 4.92294 37.5214L3.20081 35.7993C2.46869 35.067 1.28144 35.067 0.549187 35.7993C-0.183062 36.5315 -0.183062 37.7186 0.549187 38.4509L2.97331 40.875L0.549187 43.2991C-0.183062 44.0314 -0.183062 45.2185 0.549187 45.9507C1.28131 46.683 2.46856 46.6831 3.20081 45.9507L4.92294 44.2286C6.41044 46.0112 8.91606 46.5 11.2501 46.5C11.8447 46.5 12.4524 46.4378 13.0611 46.33C16.3477 49.7023 20.5491 53.29 25.3614 57.3983C27.0918 58.8755 28.8812 60.4031 30.7722 62.0419C31.1246 62.3472 31.5623 62.5 32.0002 62.5C32.4381 62.5 32.8758 62.3472 33.2282 62.0419C35.5183 60.0571 37.6852 58.2359 39.7807 56.4746C43.3973 53.4349 46.5208 50.8096 49.1587 48.2863C49.8643 47.6113 50.5043 46.9741 51.0979 46.3565C51.6533 46.4474 52.2071 46.5 52.7501 46.5C55.0828 46.5 57.5893 46.0117 59.0772 44.2287L60.7993 45.9509C61.5314 46.6831 62.7187 46.6833 63.4509 45.9509C64.1832 45.2186 64.1832 44.0315 63.4509 43.2993L61.0267 40.875L63.4508 38.4507C64.1831 37.7185 64.1831 36.5314 63.4508 35.7991ZM19.8306 20.25C24.9656 20.25 28.5608 24.4261 30.1249 29.2049V29.625C30.1249 30.6605 30.9644 31.5 31.9999 31.5C33.0354 31.5 33.8749 30.6605 33.8749 29.625V29.2052C35.4327 24.4468 39.0198 20.25 44.1696 20.25C50.1097 20.25 54.5889 25.1231 54.5889 31.5853C54.5889 32.8594 54.4011 34.086 54.0192 35.3021C53.6142 35.2675 53.1911 35.25 52.7501 35.25C49.1919 35.25 45.1712 37.4449 43.2544 38.6334C41.8619 37.7825 39.2747 36.4159 36.0687 35.708L37.0759 34.7007C37.8082 33.9685 37.8082 32.7814 37.0759 32.0491C36.3438 31.3169 35.1566 31.3169 34.4243 32.0491L32.0001 34.4733L29.5758 32.0491C28.8437 31.3169 27.6564 31.3169 26.9242 32.0491C26.1919 32.7814 26.1919 33.9685 26.9242 34.7007L27.9314 35.708C24.7254 36.4159 22.1382 37.7825 20.7457 38.6334C18.8289 37.4447 14.8082 35.25 11.2501 35.25C10.8171 35.25 10.4017 35.2671 10.0034 35.3005C9.60631 34.0824 9.41119 32.8564 9.41119 31.5851C9.41106 25.1231 13.8906 20.25 19.8306 20.25ZM39.5261 40.875C37.6578 41.777 34.9573 42.7499 32.0006 42.75C32.0003 42.75 31.9999 42.75 31.9997 42.75C29.0422 42.7499 26.3418 41.7769 24.4741 40.875C26.3424 39.9729 29.0428 39 32.0002 39C34.9571 39 37.6577 39.9729 39.5261 40.875ZM11.2501 42.75C7.50006 42.75 7.50006 41.3387 7.50006 40.875C7.50006 39.2411 9.62356 39 11.2501 39C13.0376 39 15.3067 39.9362 17.1028 40.8766C15.4601 41.7373 13.1057 42.75 11.2501 42.75ZM46.5664 45.5764C44.0156 48.0165 40.9348 50.6058 37.3678 53.604C35.6388 55.0571 33.8613 56.5511 32.0013 58.148C30.5482 56.8956 29.1541 55.7055 27.7962 54.5462C23.6964 51.0462 20.0478 47.9308 17.0878 45.0513C18.5799 44.3976 19.8782 43.6547 20.7457 43.1167C22.1382 43.9676 24.7254 45.3343 27.9314 46.0421L26.9242 47.0494C26.1919 47.7816 26.1919 48.9688 26.9242 49.701C27.6563 50.4333 28.8436 50.4333 29.5758 49.701L32.0001 47.2766L34.4243 49.7007C35.1564 50.433 36.3437 50.4331 37.0759 49.7007C37.8082 48.9685 37.8082 47.7814 37.0759 47.0491L36.0687 46.0419C39.2747 45.334 41.8619 43.9674 43.2544 43.1165C44.1483 43.6709 45.4992 44.4429 47.0484 45.1105C46.8909 45.264 46.7313 45.4186 46.5664 45.5764ZM52.7501 42.75C50.8927 42.75 48.5379 41.7324 46.8973 40.8734C48.6898 39.9341 50.9556 39 52.7501 39C54.3831 39 56.5001 39.2446 56.5001 40.875C56.5001 41.3387 56.5001 42.75 52.7501 42.75Z" fill="black"/>
</g>
<defs>
<clipPath id="clip0_3473_5905">
<rect width="64" height="64" fill="white"/>
</clipPath>
</defs>
</svg>
