<svg width="64" height="64" viewBox="0 0 64 64" fill="none" xmlns="http://www.w3.org/2000/svg">
<g clip-path="url(#clip0_3473_5930)">
<path d="M31.8883 8.1325C32.5835 8.1325 33.1471 7.56887 33.1471 6.87362V1.25888C33.1471 0.563625 32.5835 0 31.8883 0C31.193 0 30.6294 0.563625 30.6294 1.25888V6.87362C30.6295 7.56887 31.1931 8.1325 31.8883 8.1325Z" fill="black"/>
<path d="M62.6601 43.2485L60.4362 41.0309C59.6451 40.2407 58.5907 39.8055 57.4672 39.8055C56.7488 39.8055 56.0592 39.9842 55.4481 40.3191L51.2573 36.1334L51.4614 35.9295C53.1616 34.226 53.1609 31.4579 51.4613 29.7601C50.8539 29.1516 50.0961 28.7459 49.2699 28.5751C49.3837 28.1825 49.4436 27.7712 49.4436 27.3504C49.4436 26.181 48.9893 25.0845 48.1671 24.2656C47.5596 23.6571 46.8018 23.2514 45.9757 23.0806C46.0894 22.688 46.1493 22.2769 46.1493 21.8559C46.1493 20.6864 45.6951 19.59 44.8714 18.7699C44.2494 18.1486 43.4848 17.7554 42.6819 17.588C43.1114 16.1071 42.7444 14.441 41.5794 13.274C40.6097 12.3084 39.2938 11.8934 38.0257 12.0279L29.7213 10.456C28.4548 10.2157 26.8732 10.0569 25.8748 10.9675C25.8118 11.025 25.7476 11.0911 25.6843 11.1647C24.1363 10.6005 22.3308 10.9365 21.0912 12.1747C20.2688 12.9961 19.8158 14.0921 19.8158 15.2609C19.8158 15.6819 19.8754 16.093 19.9891 16.4857C19.1638 16.6564 18.4069 17.0616 17.8016 17.6681C16.9776 18.4887 16.5232 19.5835 16.5223 20.7509C16.5219 21.1729 16.5818 21.5854 16.6961 21.9791C15.8704 22.1494 15.1131 22.5539 14.5058 23.1604C13.6818 23.9835 13.2281 25.0801 13.2281 26.2482C13.2281 27.143 13.4952 27.9954 13.9902 28.7154C13.3652 28.9272 12.7927 29.2799 12.3133 29.7587C10.6121 31.4579 10.6114 34.2261 12.3144 35.9321L12.5178 36.1346L8.32657 40.3182C6.76894 39.5849 4.84982 39.8596 3.56444 41.1434L1.33919 43.3624C0.547691 44.1529 0.111941 45.2074 0.111816 46.3315C0.111816 47.4557 0.547691 48.5104 1.33919 49.301L4.11632 52.0747C4.60819 52.5661 5.40532 52.5656 5.89657 52.0737C6.38794 51.5819 6.38744 50.7847 5.89557 50.2935L3.11844 47.5197C2.80319 47.2049 2.62957 46.7829 2.62957 46.3316C2.62957 45.8805 2.80319 45.4586 3.11769 45.1445L5.34307 42.9254C5.89907 42.37 6.75007 42.2872 7.39632 42.6736C7.44182 42.742 7.49444 42.807 7.55469 42.8674C7.66257 42.9755 7.78569 43.0584 7.91644 43.119L20.6781 55.8619C20.7387 55.994 20.8219 56.1184 20.9306 56.2271C21.0363 56.333 21.1569 56.4149 21.2849 56.4751C21.5548 56.7802 21.7039 57.17 21.7039 57.5857C21.7039 58.037 21.5303 58.4589 21.2151 58.7737L18.9919 60.9942C18.3351 61.6482 17.2666 61.6481 16.6117 60.9962L13.8346 58.2189C13.3429 57.7272 12.5459 57.7272 12.0543 58.2189C11.5627 58.7105 11.5627 59.5075 12.0543 59.9991L14.8334 62.7785C15.6514 63.5931 16.7257 64.0002 17.8004 64.0002C18.8754 64.0002 19.9509 63.5925 20.7699 62.7771L22.9944 60.5552C23.7859 59.7646 24.2218 58.7101 24.2218 57.5857C24.2218 56.7834 23.9987 56.0171 23.5838 55.3564L28.3008 50.6451C28.3058 50.64 28.3108 50.6349 28.3159 50.6297C28.8561 50.0714 30.3602 50.1759 31.8148 50.2769C32.8483 50.3487 34.0006 50.4286 35.1263 50.2989L40.2918 55.4582C39.9572 56.0684 39.7786 56.7571 39.7786 57.4744C39.7786 58.5975 40.2144 59.6514 41.0059 60.442L43.2306 62.6639C44.0216 63.454 45.0759 63.8892 46.1994 63.8892C47.3228 63.8892 48.3772 63.4541 49.1683 62.6639L62.6609 49.1876C63.4524 48.3971 63.8883 47.3426 63.8883 46.2184C63.8882 45.0942 63.4523 44.0397 62.6601 43.2485ZM29.2526 12.9297L34.7134 13.9634L31.4448 17.2307C30.9392 16.9877 30.2462 16.5345 29.4859 15.8072C28.4453 14.8117 27.7009 13.6624 27.6332 12.9455C27.6331 12.9451 27.6331 12.9447 27.6331 12.9444C27.6331 12.9442 27.6329 12.9441 27.6329 12.944C27.6281 12.8925 27.6268 12.8514 27.6274 12.82C27.7921 12.78 28.2293 12.7356 29.2526 12.9297ZM22.8703 13.9561C23.5081 13.319 24.4988 13.2455 25.2194 13.7335C25.6278 15.4457 27.0884 16.9976 27.7456 17.6264C28.2326 18.0924 29.7952 19.4895 31.3724 19.8735C31.5858 20.1794 31.7019 20.544 31.7019 20.9287C31.7019 21.4244 31.5113 21.8877 31.1639 22.2347C30.8176 22.5817 30.3534 22.7727 29.8569 22.7727C29.3603 22.7727 28.8962 22.5817 28.5482 22.2331L28.5481 22.233L28.5474 22.2324L22.8702 16.5654C22.5241 16.2197 22.3334 15.7564 22.3334 15.2609C22.3336 14.7652 22.5242 14.3019 22.8703 13.9561ZM19.5808 19.4495C19.9272 19.1026 20.3908 18.9115 20.8866 18.9115C21.3829 18.9115 21.8481 19.103 22.1967 19.4512L26.7682 24.0136C27.4881 24.7346 27.4881 25.9079 26.7707 26.6264C26.4224 26.9732 25.9567 27.1642 25.4593 27.1642C24.9619 27.1642 24.4962 26.9732 24.1494 26.6279L24.1493 26.6277L20.6812 23.1604C20.6758 23.155 20.6699 23.15 20.6644 23.1445L19.5794 22.06C19.2313 21.7122 19.0397 21.248 19.0401 20.7527C19.0406 20.2591 19.2316 19.7972 19.5808 19.4495ZM16.2851 24.9417C16.6317 24.5956 17.0963 24.405 17.5936 24.405C18.0867 24.405 18.5473 24.5929 18.8924 24.933L22.3712 28.4101C22.7181 28.7556 22.9092 29.2185 22.9092 29.7135C22.9092 30.2084 22.7181 30.6712 22.3698 31.0181C22.0233 31.3641 21.5592 31.5547 21.0628 31.5547C20.5657 31.5547 20.1001 31.3636 19.7531 31.0181L18.4919 29.7585C18.4917 29.7581 18.4913 29.7579 18.4911 29.7576L16.2852 27.5544C15.9374 27.207 15.7459 26.743 15.7459 26.248C15.7459 25.7531 15.9374 25.289 16.2851 24.9417ZM14.0926 31.54C14.4407 31.1922 14.9059 31.0007 15.4026 31.0007C15.8991 31.0007 16.3642 31.1921 16.7122 31.5396L17.9751 32.801C18.3221 33.1465 18.5131 33.6094 18.5131 34.1044C18.5131 34.5994 18.3219 35.0621 17.9724 35.4104C17.6261 35.7572 17.1619 35.9484 16.6654 35.9484C16.1688 35.9484 15.7047 35.7574 15.3558 35.4079L15.1977 35.2504C15.1956 35.2482 15.1939 35.246 15.1919 35.244C15.1896 35.2417 15.1871 35.2397 15.1847 35.2375L14.0938 34.1509C13.3739 33.4295 13.3733 32.2584 14.0926 31.54ZM39.7468 45.8472C39.2554 45.3552 38.4583 45.3549 37.9666 45.8461L36.8466 46.9647C35.7823 48.029 33.8539 47.895 31.9891 47.7656C29.9639 47.6249 27.8698 47.4796 26.5147 48.8709L21.8778 53.5021L10.2824 41.9237L14.3859 37.8276C15.0642 38.2434 15.8468 38.4662 16.6657 38.4662C17.8356 38.4662 18.9326 38.0127 19.7519 37.1919C20.5768 36.3704 21.0312 35.274 21.0312 34.1045C21.0312 34.0936 21.0304 34.0829 21.0304 34.072C21.0413 34.0721 21.0522 34.0727 21.0631 34.0727C22.2313 34.0727 23.3274 33.6206 24.1479 32.8011C24.9728 31.9796 25.4272 30.8831 25.4272 29.7137C25.4272 29.7029 25.4264 29.6921 25.4264 29.6812C25.4374 29.6812 25.4484 29.682 25.4596 29.682C26.6274 29.682 27.7242 29.2304 28.5502 28.4077C29.4077 27.5489 29.8318 26.4181 29.8237 25.2897C29.8349 25.2899 29.8462 25.2905 29.8574 25.2905C31.0273 25.2904 32.1242 24.837 32.9448 24.0149C33.7672 23.1935 34.2202 22.0975 34.2202 20.9287C34.2202 20.1114 33.9979 19.33 33.5836 18.6531L37.1802 15.058C37.4482 14.7911 37.7787 14.6236 38.1251 14.5545C38.1626 14.5505 38.1996 14.5445 38.2362 14.5372C38.7919 14.4606 39.3756 14.6321 39.8006 15.0554C40.5204 15.7765 40.5204 16.9497 39.8032 17.6682L38.7078 18.7591C38.7042 18.7627 38.7003 18.766 38.6967 18.7696L37.4351 20.0291C36.9431 20.5204 36.9426 21.3175 37.4339 21.8094C37.9254 22.3014 38.7224 22.3017 39.2142 21.8105L40.3139 20.7122C40.3142 20.712 40.3144 20.7117 40.3147 20.7115L40.4809 20.5459C41.2028 19.8306 42.3723 19.8321 43.0934 20.5522C43.4404 20.8977 43.6316 21.3606 43.6316 21.8556C43.6316 22.3505 43.4404 22.8134 43.0907 23.1616L41.9891 24.2655C41.9889 24.2656 41.9888 24.2657 41.9887 24.266L40.7272 25.5224C40.2346 26.013 40.2329 26.8101 40.7236 27.3026C41.2142 27.7952 42.0112 27.7967 42.5038 27.3062L43.7711 26.0441C44.1174 25.6971 44.5816 25.5061 45.0781 25.5061C45.5747 25.5061 46.0389 25.6971 46.3878 26.0466C46.7348 26.3922 46.9258 26.8551 46.9258 27.3501C46.9258 27.845 46.7348 28.3079 46.3858 28.6554L44.1896 30.8525C43.6981 31.3442 43.6982 32.1412 44.1898 32.6327C44.4357 32.8785 44.7577 33.0012 45.0798 33.0012C45.4021 33.0012 45.7243 32.8782 45.9701 32.6324L47.0464 31.5556C47.0526 31.5497 47.0592 31.5446 47.0653 31.5385C47.4117 31.1915 47.8758 31.0005 48.3723 31.0005C48.8689 31.0005 49.3331 31.1915 49.6807 31.5397C50.3998 32.2581 50.3992 33.4294 49.6807 34.1491L48.5863 35.2422C48.5859 35.2426 48.5854 35.243 48.5851 35.2434C48.5847 35.2437 48.5843 35.2442 48.5839 35.2446L46.8469 36.9795C46.3551 37.4709 46.3546 38.268 46.8458 38.7599C47.0917 39.006 47.4142 39.1291 47.7366 39.1291C48.0584 39.1291 48.3804 39.0064 48.6262 38.761L49.4758 37.9124L53.5479 41.9797L41.9536 53.56L37.7993 49.4107C38.0889 49.2245 38.3661 49.0055 38.6262 48.7454L39.7456 47.6274C40.2377 47.1362 40.2382 46.3391 39.7468 45.8472ZM60.8816 47.4062L47.3889 60.8825C47.0733 61.1977 46.6508 61.3714 46.1993 61.3714C45.7478 61.3714 45.3253 61.1977 45.0096 60.8824L42.7849 58.6605C42.4697 58.3457 42.2961 57.9245 42.2961 57.4744C42.2961 57.0244 42.4697 56.6031 42.7849 56.2882L56.2776 42.812C56.5933 42.4966 57.0157 42.323 57.4673 42.323C57.9188 42.323 58.3413 42.4966 58.6578 42.8127L60.8817 45.0304C61.1969 45.3452 61.3706 45.767 61.3706 46.2182C61.3704 46.6696 61.1968 47.0915 60.8816 47.4062Z" fill="black"/>
<path d="M15.1722 7.07189C15.4179 7.31714 15.7397 7.43964 16.0614 7.43964C16.3839 7.43964 16.7066 7.31639 16.9524 7.07002C17.4436 6.57789 17.4428 5.78089 16.9507 5.28977L12.3634 0.711641C11.8714 0.220516 11.0743 0.221141 10.5832 0.713391C10.0921 1.20552 10.0928 2.00252 10.5849 2.49364L15.1722 7.07189Z" fill="black"/>
<path d="M47.7151 7.43959C48.037 7.43959 48.359 7.31684 48.6048 7.07147L53.1885 2.49322C53.6804 2.00197 53.6809 1.20484 53.1895 0.712969C52.6983 0.221094 51.9013 0.220594 51.4093 0.711969L46.8255 5.29022C46.3336 5.78147 46.3331 6.57859 46.8245 7.07047C47.0704 7.31659 47.3928 7.43959 47.7151 7.43959Z" fill="black"/>
<path d="M7.85235 54.1498C7.36498 54.6455 7.37173 55.4427 7.8676 55.93L7.87123 55.9335C8.11585 56.174 8.43348 56.2938 8.75098 56.2938C9.07685 56.2938 9.40273 56.1677 9.6496 55.9165C10.137 55.4208 10.1284 54.6219 9.6326 54.1345C9.13698 53.6472 8.33998 53.654 7.85235 54.1498Z" fill="black"/>
<path d="M42.8258 44.0343C43.0173 44.0343 43.2115 43.9906 43.3939 43.8988C44.0147 43.5856 44.264 42.8286 43.951 42.2079C43.6379 41.5871 42.8808 41.3376 42.2602 41.6508L42.2532 41.6543C41.6324 41.9674 41.3865 42.7226 41.6995 43.3434C41.9205 43.7819 42.365 44.0343 42.8258 44.0343Z" fill="black"/>
</g>
<defs>
<clipPath id="clip0_3473_5930">
<rect width="64" height="64" fill="white"/>
</clipPath>
</defs>
</svg>
