<svg width="64" height="64" viewBox="0 0 64 64" fill="none" xmlns="http://www.w3.org/2000/svg">
<g clip-path="url(#clip0_3473_5974)">
<path d="M63.8748 8.54504C63.5941 7.73889 62.8929 7.17688 62.0443 7.07873L57.451 6.54895L56.9207 1.95618C56.8231 1.10755 56.2616 0.405888 55.4549 0.125127C54.6488 -0.156123 53.7728 0.0445602 53.1688 0.648564L44.0892 9.72815C43.6102 10.2072 43.3797 10.8678 43.4574 11.5411L44.1141 17.2335L42.0916 19.2565C32.097 10.6241 16.932 11.0499 7.44763 20.5343C-2.48254 30.4645 -2.48254 46.6222 7.44763 56.5523C17.3778 66.4825 33.5355 66.4825 43.4657 56.5523C52.95 47.068 53.3758 31.9029 44.7435 21.9088L46.7664 19.8859L52.4588 20.5426C53.1317 20.6202 53.7928 20.3902 54.2718 19.9108L63.3514 10.8312C63.9554 10.2272 64.1556 9.35119 63.8748 8.54504ZM40.8133 53.9005C32.3456 62.3682 18.5672 62.3682 10.0995 53.9005C1.63171 45.4322 1.63171 31.6544 10.0995 23.1861C18.121 15.1652 30.9071 14.7423 39.431 21.9171L36.0018 25.3463C29.3753 20.0436 19.6503 20.4615 13.5126 26.5992C6.92663 33.1852 6.92663 43.9015 13.5126 50.4874C20.0985 57.0733 30.8148 57.0733 37.4007 50.4874C43.5384 44.3497 43.9564 34.6246 38.6537 27.9982L42.0829 24.569C49.2577 33.0929 48.8348 45.879 40.8133 53.9005ZM24.4662 39.5338C25.1986 40.2662 26.3861 40.2662 27.1185 39.5338L29.6117 37.0401C30.1712 38.5982 29.828 40.4103 28.5819 41.6563C26.8622 43.3766 24.0633 43.3766 22.3436 41.6563C20.6234 39.9366 20.6234 37.1383 22.3436 35.4181C23.5892 34.172 25.4017 33.8287 26.9593 34.3883L24.4662 36.8819C23.7337 37.6139 23.7337 38.8014 24.4662 39.5338ZM29.7538 31.5939C26.6078 29.6495 22.4173 30.0401 19.6913 32.7662C16.5091 35.9483 16.5091 41.1266 19.6913 44.3087C22.8734 47.4908 28.0516 47.4913 31.2337 44.3087C33.9598 41.5826 34.3504 37.3922 32.4061 34.2462L35.9803 30.6715C39.8324 35.815 39.4222 43.1617 34.7484 47.8355C29.6249 52.9591 21.2879 52.9591 16.1644 47.8355C11.0409 42.712 11.0409 34.3751 16.1644 29.2516C20.8378 24.5777 28.1849 24.1671 33.328 28.0196L29.7538 31.5939ZM52.1473 16.7311L47.7738 16.2262L47.2689 11.8527L53.5614 5.56018L53.8787 8.30774C53.9891 9.26428 54.7342 10.0104 55.6922 10.1217L58.4398 10.4386L52.1473 16.7311Z" fill="black"/>
</g>
<defs>
<clipPath id="clip0_3473_5974">
<rect width="64" height="64" fill="white"/>
</clipPath>
</defs>
</svg>
